CSS Mono 002.ufo
<glyph name="quotedbl" format="1">
  <advance width="800"/>
  <unicode hex="0022"/>
  <outline>
    <contour>
      <point x="367" y="641" type="line"/>
      <point x="367" y="669"/>
      <point x="344" y="692"/>
      <point x="315" y="692" type="curve" smooth="yes"/>
      <point x="287" y="692"/>
      <point x="259" y="669"/>
      <point x="264" y="641" type="curve" smooth="yes"/>
      <point x="297" y="452" type="line" smooth="yes"/>
      <point x="333" y="452" type="line" smooth="yes"/>
    </contour>
    <contour>
      <point x="537" y="641" type="line"/>
      <point x="537" y="669"/>
      <point x="514" y="692"/>
      <point x="485" y="692" type="curve" smooth="yes"/>
      <point x="457" y="692"/>
      <point x="429" y="669"/>
      <point x="434" y="641" type="curve" smooth="yes"/>
      <point x="467" y="452" type="line" smooth="yes"/>
      <point x="503" y="452" type="line" smooth="yes"/>
    </contour>
  </outline>
</glyph>
<glyph name="percent" format="1">
  <advance width="800"/>
  <unicode hex="0025"/>
  <outline>
    <contour>
      <point x="653" y="117" type="curve" smooth="yes"/>
      <point x="653" y="66"/>
      <point x="617" y="15"/>
      <point x="572" y="15" type="curve" smooth="yes"/>
      <point x="508" y="15"/>
      <point x="467" y="62"/>
      <point x="467" y="133" type="curve" smooth="yes"/>
      <point x="467" y="184"/>
      <point x="503" y="235"/>
      <point x="548" y="235" type="curve" smooth="yes"/>
      <point x="612" y="235"/>
      <point x="653" y="188"/>
    </contour>
    <contour>
      <point x="400" y="116" type="curve" smooth="yes"/>
      <point x="400" y="46"/>
      <point x="471" y="-12"/>
      <point x="541" y="-12" type="curve" smooth="yes"/>
      <point x="636" y="-12"/>
      <point x="720" y="39"/>
      <point x="720" y="134" type="curve" smooth="yes"/>
      <point x="720" y="204"/>
      <point x="649" y="262"/>
      <point x="579" y="262" type="curve" smooth="yes"/>
      <point x="484" y="262"/>
      <point x="400" y="211"/>
    </contour>
    <contour>
      <point x="333" y="527" type="curve" smooth="yes"/>
      <point x="333" y="476"/>
      <point x="297" y="425"/>
      <point x="252" y="425" type="curve" smooth="yes"/>
      <point x="188" y="425"/>
      <point x="147" y="472"/>
      <point x="147" y="543" type="curve" smooth="yes"/>
      <point x="147" y="594"/>
      <point x="183" y="645"/>
      <point x="228" y="645" type="curve" smooth="yes"/>
      <point x="292" y="645"/>
      <point x="333" y="598"/>
    </contour>
    <contour>
      <point x="80" y="526" type="curve" smooth="yes"/>
      <point x="80" y="456"/>
      <point x="151" y="398"/>
      <point x="221" y="398" type="curve" smooth="yes"/>
      <point x="316" y="398"/>
      <point x="400" y="449"/>
      <point x="400" y="544" type="curve" smooth="yes"/>
      <point x="400" y="614"/>
      <point x="329" y="672"/>
      <point x="259" y="672" type="curve" smooth="yes"/>
      <point x="164" y="672"/>
      <point x="80" y="621"/>
    </contour>
    <contour>
      <point x="188" y="0" type="line" smooth="yes"/>
      <point x="110" y="0" type="line" smooth="yes"/>
      <point x="612" y="660" type="line" smooth="yes"/>
      <point x="690" y="660" type="line" smooth="yes"/>
    </contour>
  </outline>
</glyph>
<glyph name="parenleft" format="1">
  <advance width="800"/>
  <unicode hex="0028"/>
  <outline>
    <contour>
      <point x="634" y="-192" type="curve"/>
      <point x="634" y="-155" type="line"/>
      <point x="456" y="-155"/>
      <point x="299" y="31"/>
      <point x="299" y="250" type="curve" smooth="yes"/>
      <point x="299" y="469"/>
      <point x="456" y="655"/>
      <point x="634" y="655" type="curve"/>
      <point x="634" y="692" type="line"/>
      <point x="436" y="692"/>
      <point x="208" y="549"/>
      <point x="208" y="250" type="curve" smooth="yes"/>
      <point x="208" y="-49"/>
      <point x="436" y="-192"/>
    </contour>
  </outline>
</glyph>
<glyph name="parenright" format="1">
  <advance width="800"/>
  <unicode hex="0029"/>
  <outline>
    <contour>
      <point x="166" y="-192" type="line"/>
      <point x="364" y="-192"/>
      <point x="592" y="-49"/>
      <point x="592" y="250" type="curve" smooth="yes"/>
      <point x="592" y="549"/>
      <point x="364" y="692"/>
      <point x="166" y="692" type="curve"/>
      <point x="166" y="655" type="line"/>
      <point x="344" y="655"/>
      <point x="501" y="469"/>
      <point x="501" y="250" type="curve" smooth="yes"/>
      <point x="501" y="31"/>
      <point x="344" y="-155"/>
      <point x="166" y="-155" type="curve"/>
    </contour>
  </outline>
</glyph>
<glyph name="asterisk" format="1">
  <advance width="800"/>
  <unicode hex="002A"/>
  <outline>
    <contour>
      <point x="400" y="449" type="curve"/>
      <point x="400" y="465" type="line"/>
      <point x="246" y="465"/>
      <point x="269" y="508"/>
      <point x="211" y="508" type="curve" smooth="yes"/>
      <point x="183" y="508"/>
      <point x="160" y="485"/>
      <point x="160" y="457" type="curve" smooth="yes"/>
      <point x="160" y="429"/>
      <point x="183" y="406"/>
      <point x="211" y="406" type="curve" smooth="yes"/>
      <point x="269" y="406"/>
      <point x="246" y="449"/>
    </contour>
    <contour>
      <point x="407" y="453" type="line"/>
      <point x="484" y="586"/>
      <point x="510" y="545"/>
      <point x="539" y="595" type="curve" smooth="yes"/>
      <point x="553" y="619"/>
      <point x="544" y="651"/>
      <point x="520" y="665" type="curve" smooth="yes"/>
      <point x="496" y="679"/>
      <point x="464" y="670"/>
      <point x="450" y="646" type="curve" smooth="yes"/>
      <point x="421" y="596"/>
      <point x="470" y="594"/>
      <point x="393" y="461" type="curve"/>
    </contour>
    <contour>
      <point x="400" y="449" type="line"/>
      <point x="554" y="449"/>
      <point x="531" y="406"/>
      <point x="589" y="406" type="curve" smooth="yes"/>
      <point x="617" y="406"/>
      <point x="640" y="429"/>
      <point x="640" y="457" type="curve" smooth="yes"/>
      <point x="640" y="485"/>
      <point x="617" y="508"/>
      <point x="589" y="508" type="curve" smooth="yes"/>
      <point x="531" y="508"/>
      <point x="554" y="465"/>
      <point x="400" y="465" type="curve"/>
    </contour>
    <contour>
      <point x="393" y="453" type="line"/>
      <point x="470" y="320"/>
      <point x="421" y="318"/>
      <point x="450" y="268" type="curve" smooth="yes"/>
      <point x="464" y="244"/>
      <point x="496" y="235"/>
      <point x="520" y="249" type="curve" smooth="yes"/>
      <point x="544" y="263"/>
      <point x="553" y="295"/>
      <point x="539" y="319" type="curve" smooth="yes"/>
      <point x="510" y="369"/>
      <point x="484" y="328"/>
      <point x="407" y="461" type="curve"/>
    </contour>
    <contour>
      <point x="393" y="453" type="curve"/>
      <point x="407" y="461" type="line"/>
      <point x="330" y="594"/>
      <point x="379" y="596"/>
      <point x="350" y="646" type="curve" smooth="yes"/>
      <point x="336" y="670"/>
      <point x="304" y="679"/>
      <point x="280" y="665" type="curve" smooth="yes"/>
      <point x="256" y="651"/>
      <point x="247" y="619"/>
      <point x="261" y="595" type="curve" smooth="yes"/>
      <point x="290" y="545"/>
      <point x="316" y="586"/>
    </contour>
    <contour>
      <point x="407" y="453" type="curve"/>
      <point x="393" y="461" type="line"/>
      <point x="316" y="328"/>
      <point x="290" y="369"/>
      <point x="261" y="319" type="curve" smooth="yes"/>
      <point x="247" y="295"/>
      <point x="256" y="263"/>
      <point x="280" y="249" type="curve" smooth="yes"/>
      <point x="304" y="235"/>
      <point x="336" y="244"/>
      <point x="350" y="268" type="curve" smooth="yes"/>
      <point x="379" y="318"/>
      <point x="330" y="320"/>
    </contour>
  </outline>
</glyph>
<glyph name="plus" format="1">
  <advance width="800"/>
  <unicode hex="002B"/>
  <outline>
    <contour>
      <point x="650" y="247" type="line" smooth="yes"/>
      <point x="150" y="247" type="line" smooth="yes"/>
      <point x="150" y="319" type="line" smooth="yes"/>
      <point x="650" y="319" type="line" smooth="yes"/>
    </contour>
    <contour>
      <point x="436" y="533" type="line" smooth="yes"/>
      <point x="436" y="33" type="line" smooth="yes"/>
      <point x="364" y="33" type="line" smooth="yes"/>
      <point x="364" y="533" type="line" smooth="yes"/>
    </contour>
  </outline>
</glyph>
<glyph name="comma" format="1">
  <advance width="800"/>
  <unicode hex="002C"/>
  <outline>
    <contour>
      <point x="407" y="138" type="curve" smooth="yes"/>
      <point x="362" y="138"/>
      <point x="325" y="104"/>
      <point x="325" y="63" type="curve" smooth="yes"/>
      <point x="325" y="22"/>
      <point x="359" y="-12"/>
      <point x="400" y="-12" type="curve" smooth="yes"/>
      <point x="413" y="-12"/>
      <point x="418" y="-11"/>
      <point x="426" y="-5" type="curve"/>
      <point x="426" y="-76"/>
      <point x="307" y="-127"/>
      <point x="307" y="-127" type="curve"/>
      <point x="326" y="-158" type="line"/>
      <point x="425" y="-115"/>
      <point x="492" y="-64"/>
      <point x="492" y="54" type="curve" smooth="yes"/>
      <point x="492" y="99"/>
      <point x="454" y="138"/>
    </contour>
  </outline>
</glyph>
<glyph name="three" format="1">
  <advance width="800"/>
  <unicode hex="0033"/>
  <outline>
    <contour>
      <point x="428" y="672" type="curve" smooth="yes"/>
      <point x="294" y="672"/>
      <point x="142" y="613"/>
      <point x="142" y="533" type="curve" smooth="yes"/>
      <point x="142" y="509"/>
      <point x="156" y="486"/>
      <point x="188" y="486" type="curve" smooth="yes"/>
      <point x="221" y="486"/>
      <point x="271" y="506"/>
      <point x="271" y="527" type="curve" smooth="yes"/>
      <point x="271" y="560"/>
      <point x="220" y="566"/>
      <point x="246" y="591" type="curve" smooth="yes"/>
      <point x="270" y="616"/>
      <point x="328" y="639"/>
      <point x="376" y="639" type="curve" smooth="yes"/>
      <point x="463" y="639"/>
      <point x="546" y="593"/>
      <point x="546" y="492" type="curve" smooth="yes"/>
      <point x="546" y="399"/>
      <point x="439" y="371"/>
      <point x="331" y="374" type="curve"/>
      <point x="331" y="337" type="line"/>
      <point x="467" y="339"/>
      <point x="640" y="399"/>
      <point x="640" y="523" type="curve" smooth="yes"/>
      <point x="640" y="609"/>
      <point x="569" y="672"/>
    </contour>
    <contour>
      <point x="228" y="123" type="curve" smooth="yes"/>
      <point x="228" y="144"/>
      <point x="242" y="152"/>
      <point x="242" y="171" type="curve" smooth="yes"/>
      <point x="242" y="197"/>
      <point x="221" y="209"/>
      <point x="197" y="209" type="curve" smooth="yes"/>
      <point x="164" y="209"/>
      <point x="123" y="185"/>
      <point x="123" y="141" type="curve" smooth="yes"/>
      <point x="123" y="41"/>
      <point x="238" y="-12"/>
      <point x="363" y="-12" type="curve" smooth="yes"/>
      <point x="513" y="-12"/>
      <point x="678" y="63"/>
      <point x="678" y="213" type="curve" smooth="yes"/>
      <point x="678" y="370"/>
      <point x="482" y="372"/>
      <point x="331" y="374" type="curve"/>
      <point x="331" y="338" type="line"/>
      <point x="470" y="345"/>
      <point x="584" y="300"/>
      <point x="584" y="179" type="curve" smooth="yes"/>
      <point x="584" y="69"/>
      <point x="498" y="29"/>
      <point x="411" y="29" type="curve" smooth="yes"/>
      <point x="320" y="29"/>
      <point x="228" y="72"/>
    </contour>
  </outline>
</glyph>
<glyph name="seven" format="1">
  <advance width="800"/>
  <unicode hex="0037"/>
  <outline>
    <contour>
      <point x="479" y="18" type="line"/>
      <point x="427" y="24"/>
      <point x="410" y="45"/>
      <point x="411" y="76" type="curve" smooth="yes"/>
      <point x="416" y="329"/>
      <point x="567" y="532"/>
      <point x="683" y="622" type="curve"/>
      <point x="659" y="636"/>
      <point x="648" y="649"/>
      <point x="628" y="672" type="curve"/>
      <point x="571" y="652"/>
      <point x="424" y="599"/>
      <point x="303" y="599" type="curve" smooth="yes"/>
      <point x="244" y="599"/>
      <point x="214" y="613"/>
      <point x="214" y="632" type="curve" smooth="yes"/>
      <point x="214" y="663"/>
      <point x="184" y="672"/>
      <point x="156" y="672" type="curve" smooth="yes"/>
      <point x="135" y="672"/>
      <point x="117" y="660"/>
      <point x="117" y="636" type="curve" smooth="yes"/>
      <point x="117" y="605"/>
      <point x="136" y="548"/>
      <point x="238" y="548" type="curve" smooth="yes"/>
      <point x="359" y="548"/>
      <point x="538" y="602"/>
      <point x="599" y="625" type="curve"/>
      <point x="503" y="543"/>
      <point x="333" y="358"/>
      <point x="311" y="75" type="curve" smooth="yes"/>
      <point x="308" y="42"/>
      <point x="288" y="22"/>
      <point x="237" y="18" type="curve"/>
      <point x="237" y="0" type="line" smooth="yes"/>
      <point x="479" y="0" type="line" smooth="yes"/>
    </contour>
  </outline>
</glyph>
<glyph name="semicolon" format="1">
  <advance width="800"/>
  <unicode hex="003B"/>
  <outline>
    <contour>
      <point x="400" y="512" type="curve" smooth="yes"/>
      <point x="359" y="512"/>
      <point x="325" y="478"/>
      <point x="325" y="437" type="curve" smooth="yes"/>
      <point x="325" y="396"/>
      <point x="359" y="362"/>
      <point x="400" y="362" type="curve" smooth="yes"/>
      <point x="441" y="362"/>
      <point x="475" y="396"/>
      <point x="475" y="437" type="curve" smooth="yes"/>
      <point x="475" y="478"/>
      <point x="441" y="512"/>
    </contour>
    <contour>
      <point x="407" y="138" type="curve" smooth="yes"/>
      <point x="362" y="138"/>
      <point x="325" y="104"/>
      <point x="325" y="63" type="curve" smooth="yes"/>
      <point x="325" y="22"/>
      <point x="359" y="-12"/>
      <point x="400" y="-12" type="curve" smooth="yes"/>
      <point x="413" y="-12"/>
      <point x="418" y="-11"/>
      <point x="426" y="-5" type="curve"/>
      <point x="426" y="-76"/>
      <point x="307" y="-127"/>
      <point x="307" y="-127" type="curve"/>
      <point x="326" y="-158" type="line"/>
      <point x="425" y="-115"/>
      <point x="492" y="-64"/>
      <point x="492" y="54" type="curve" smooth="yes"/>
      <point x="492" y="99"/>
      <point x="454" y="138"/>
    </contour>
  </outline>
</glyph>
<glyph name="less" format="1">
  <advance width="800"/>
  <unicode hex="003C"/>
  <outline>
    <contour>
      <point x="218" y="327" type="line" smooth="yes"/>
      <point x="675" y="543" type="line" smooth="yes"/>
      <point x="675" y="606" type="line" smooth="yes"/>
      <point x="138" y="347" type="line" smooth="yes"/>
      <point x="138" y="276" type="line" smooth="yes"/>
      <point x="675" y="0" type="line" smooth="yes"/>
      <point x="675" y="88" type="line" smooth="yes"/>
    </contour>
  </outline>
</glyph>
<glyph name="question" format="1">
  <advance width="800"/>
  <unicode hex="003F"/>
  <outline>
    <contour>
      <point x="464" y="52" type="curve" smooth="yes"/>
      <point x="464" y="17"/>
      <point x="435" y="-12"/>
      <point x="400" y="-12" type="curve" smooth="yes"/>
      <point x="365" y="-12"/>
      <point x="336" y="17"/>
      <point x="336" y="52" type="curve" smooth="yes"/>
      <point x="336" y="87"/>
      <point x="365" y="116"/>
      <point x="400" y="116" type="curve" smooth="yes"/>
      <point x="435" y="116"/>
      <point x="464" y="87"/>
    </contour>
    <contour>
      <point x="640" y="518" type="curve" smooth="yes"/>
      <point x="640" y="628"/>
      <point x="539" y="673"/>
      <point x="429" y="673" type="curve" smooth="yes"/>
      <point x="301" y="673"/>
      <point x="161" y="612"/>
      <point x="161" y="524" type="curve" smooth="yes"/>
      <point x="161" y="502"/>
      <point x="178" y="482"/>
      <point x="207" y="482" type="curve" smooth="yes"/>
      <point x="240" y="482"/>
      <point x="290" y="502"/>
      <point x="290" y="523" type="curve" smooth="yes"/>
      <point x="290" y="556"/>
      <point x="254" y="562"/>
      <point x="278" y="588" type="curve" smooth="yes"/>
      <point x="308" y="622"/>
      <point x="361" y="644"/>
      <point x="404" y="644" type="curve" smooth="yes"/>
      <point x="481" y="644"/>
      <point x="550" y="590"/>
      <point x="550" y="502" type="curve" smooth="yes"/>
      <point x="550" y="388"/>
      <point x="351" y="432"/>
      <point x="382" y="223" type="curve"/>
      <point x="419" y="223" type="line"/>
      <point x="411" y="407"/>
      <point x="640" y="353"/>
    </contour>
  </outline>
</glyph>
<glyph name="A" format="1">
  <advance width="800"/>
  <unicode hex="0041"/>
  <outline>
    <contour>
      <point x="584" y="199" type="line" smooth="yes"/>
      <point x="584" y="244" type="line" smooth="yes"/>
      <point x="215" y="244" type="line" smooth="yes"/>
      <point x="215" y="199" type="line" smooth="yes"/>
    </contour>
    <contour>
      <point x="251" y="18" type="line"/>
      <point x="206" y="24"/>
      <point x="153" y="34"/>
      <point x="171" y="75" type="curve" smooth="yes"/>
      <point x="431" y="672" type="line" smooth="yes"/>
      <point x="384" y="672" type="line" smooth="yes"/>
      <point x="123" y="75" type="line" smooth="yes"/>
      <point x="105" y="34"/>
      <point x="68" y="24"/>
      <point x="29" y="18" type="curve"/>
      <point x="29" y="0" type="line" smooth="yes"/>
      <point x="251" y="0" type="line" smooth="yes"/>
    </contour>
    <contour>
      <point x="366" y="580" type="line" smooth="yes"/>
      <point x="587" y="75" type="line" smooth="yes"/>
      <point x="602" y="42"/>
      <point x="569" y="26"/>
      <point x="527" y="18" type="curve"/>
      <point x="527" y="0" type="line" smooth="yes"/>
      <point x="771" y="0" type="line" smooth="yes"/>
      <point x="771" y="18" type="line"/>
      <point x="721" y="28"/>
      <point x="704" y="45"/>
      <point x="691" y="75" type="curve" smooth="yes"/>
      <point x="431" y="672" type="line" smooth="yes"/>
    </contour>
  </outline>
</glyph>
<glyph name="J" format="1">
  <advance width="800"/>
  <unicode hex="004A"/>
  <outline>
    <contour>
      <point x="450" y="642" type="line"/>
      <point x="493" y="634"/>
      <point x="519" y="613"/>
      <point x="519" y="584" type="curve"/>
      <point x="519" y="660" type="line" smooth="yes"/>
      <point x="450" y="660" type="line" smooth="yes"/>
    </contour>
    <contour>
      <point x="688" y="642" type="line"/>
      <point x="645" y="634"/>
      <point x="619" y="613"/>
      <point x="619" y="584" type="curve"/>
      <point x="619" y="660" type="line" smooth="yes"/>
      <point x="688" y="660" type="line" smooth="yes"/>
    </contour>
    <contour>
      <point x="619" y="240" type="curve" smooth="yes"/>
      <point x="619" y="660" type="line"/>
      <point x="519" y="660" type="line"/>
      <point x="519" y="220" type="line" smooth="yes"/>
      <point x="519" y="124"/>
      <point x="469" y="36"/>
      <point x="380" y="36" type="curve" smooth="yes"/>
      <point x="309" y="36"/>
      <point x="227" y="77"/>
      <point x="227" y="146" type="curve" smooth="yes"/>
      <point x="227" y="167"/>
      <point x="244" y="174"/>
      <point x="244" y="193" type="curve" smooth="yes"/>
      <point x="244" y="212"/>
      <point x="223" y="231"/>
      <point x="199" y="231" type="curve" smooth="yes"/>
      <point x="160" y="231"/>
      <point x="125" y="202"/>
      <point x="125" y="163" type="curve" smooth="yes"/>
      <point x="125" y="53"/>
      <point x="237" y="-12"/>
      <point x="350" y="-12" type="curve" smooth="yes"/>
      <point x="496" y="-12"/>
      <point x="619" y="84"/>
    </contour>
  </outline>
</glyph>
<glyph name="L" format="1">
  <advance width="800"/>
  <unicode hex="004C"/>
  <outline>
    <contour>
      <point x="245" y="0" type="line" smooth="yes"/>
      <point x="145" y="0" type="line" smooth="yes"/>
      <point x="145" y="660" type="line" smooth="yes"/>
      <point x="245" y="660" type="line" smooth="yes"/>
    </contour>
    <contour>
      <point x="76" y="18" type="line"/>
      <point x="119" y="26"/>
      <point x="145" y="47"/>
      <point x="145" y="76" type="curve"/>
      <point x="145" y="0" type="line" smooth="yes"/>
      <point x="76" y="0" type="line" smooth="yes"/>
    </contour>
    <contour>
      <point x="76" y="642" type="line"/>
      <point x="119" y="634"/>
      <point x="145" y="613"/>
      <point x="145" y="584" type="curve"/>
      <point x="145" y="660" type="line" smooth="yes"/>
      <point x="76" y="660" type="line" smooth="yes"/>
    </contour>
    <contour>
      <point x="483" y="45" type="curve" smooth="yes"/>
      <point x="245" y="45" type="line" smooth="yes"/>
      <point x="245" y="0" type="line" smooth="yes"/>
      <point x="672" y="0" type="line"/>
      <point x="724" y="192" type="line" smooth="yes"/>
      <point x="679" y="192" type="line"/>
      <point x="654" y="77"/>
      <point x="603" y="45"/>
    </contour>
    <contour>
      <point x="314" y="642" type="curve"/>
      <point x="314" y="660" type="line" smooth="yes"/>
      <point x="245" y="660" type="line" smooth="yes"/>
      <point x="245" y="584" type="line"/>
      <point x="245" y="613"/>
      <point x="271" y="634"/>
    </contour>
  </outline>
</glyph>
<glyph name="O" format="1">
  <advance width="800"/>
  <unicode hex="004F"/>
  <outline>
    <contour>
      <point x="380" y="627" type="curve" smooth="yes"/>
      <point x="513" y="627"/>
      <point x="653" y="517"/>
      <point x="653" y="308" type="curve" smooth="yes"/>
      <point x="653" y="123"/>
      <point x="540" y="34"/>
      <point x="420" y="34" type="curve" smooth="yes"/>
      <point x="288" y="34"/>
      <point x="147" y="144"/>
      <point x="147" y="353" type="curve" smooth="yes"/>
      <point x="147" y="538"/>
      <point x="261" y="627"/>
    </contour>
    <contour>
      <point x="761" y="345" type="curve" smooth="yes"/>
      <point x="761" y="565"/>
      <point x="591" y="672"/>
      <point x="416" y="672" type="curve" smooth="yes"/>
      <point x="230" y="672"/>
      <point x="39" y="551"/>
      <point x="39" y="315" type="curve" smooth="yes"/>
      <point x="39" y="95"/>
      <point x="209" y="-12"/>
      <point x="384" y="-12" type="curve" smooth="yes"/>
      <point x="570" y="-12"/>
      <point x="761" y="109"/>
    </contour>
  </outline>
</glyph>
<glyph name="Q" format="1">
  <advance width="800"/>
  <unicode hex="0051"/>
  <outline>
    <contour>
      <point x="551" y="-183" type="curve" smooth="yes"/>
      <point x="675" y="-183"/>
      <point x="773" y="-94"/>
      <point x="773" y="-94" type="curve"/>
      <point x="722" y="-118"/>
      <point x="671" y="-125"/>
      <point x="631" y="-125" type="curve" smooth="yes"/>
      <point x="497" y="-125"/>
      <point x="436" y="-22"/>
      <point x="336" y="-22" type="curve" smooth="yes"/>
      <point x="302" y="-22"/>
      <point x="254" y="-40"/>
      <point x="211" y="-73" type="curve"/>
      <point x="365" y="-62"/>
      <point x="393" y="-183"/>
    </contour>
    <contour>
      <point x="380" y="627" type="curve" smooth="yes"/>
      <point x="513" y="627"/>
      <point x="653" y="517"/>
      <point x="653" y="308" type="curve" smooth="yes"/>
      <point x="653" y="123"/>
      <point x="540" y="34"/>
      <point x="420" y="34" type="curve" smooth="yes"/>
      <point x="288" y="34"/>
      <point x="147" y="144"/>
      <point x="147" y="353" type="curve" smooth="yes"/>
      <point x="147" y="538"/>
      <point x="261" y="627"/>
    </contour>
    <contour>
      <point x="761" y="345" type="curve" smooth="yes"/>
      <point x="761" y="565"/>
      <point x="591" y="672"/>
      <point x="416" y="672" type="curve" smooth="yes"/>
      <point x="230" y="672"/>
      <point x="39" y="551"/>
      <point x="39" y="315" type="curve" smooth="yes"/>
      <point x="39" y="95"/>
      <point x="209" y="-12"/>
      <point x="384" y="-12" type="curve" smooth="yes"/>
      <point x="570" y="-12"/>
      <point x="761" y="109"/>
    </contour>
  </outline>
</glyph>
<glyph name="T" format="1">
  <advance width="800"/>
  <unicode hex="0054"/>
  <outline>
    <contour>
      <point x="450" y="660" type="line" smooth="yes"/>
      <point x="350" y="660" type="line" smooth="yes"/>
      <point x="350" y="0" type="line" smooth="yes"/>
      <point x="450" y="0" type="line" smooth="yes"/>
    </contour>
    <contour>
      <point x="281" y="18" type="line"/>
      <point x="324" y="26"/>
      <point x="350" y="47"/>
      <point x="350" y="76" type="curve"/>
      <point x="350" y="0" type="line" smooth="yes"/>
      <point x="281" y="0" type="line" smooth="yes"/>
    </contour>
    <contour>
      <point x="519" y="18" type="line"/>
      <point x="477" y="26"/>
      <point x="450" y="47"/>
      <point x="450" y="76" type="curve"/>
      <point x="450" y="0" type="line" smooth="yes"/>
      <point x="519" y="0" type="line" smooth="yes"/>
    </contour>
    <contour>
      <point x="35" y="468" type="line" smooth="yes"/>
      <point x="80" y="468" type="line"/>
      <point x="105" y="583"/>
      <point x="156" y="615"/>
      <point x="276" y="615" type="curve" smooth="yes"/>
      <point x="524" y="615" type="line" smooth="yes"/>
      <point x="644" y="615"/>
      <point x="695" y="583"/>
      <point x="720" y="468" type="curve"/>
      <point x="765" y="468" type="line" smooth="yes"/>
      <point x="713" y="660" type="line"/>
      <point x="87" y="660" type="line"/>
    </contour>
  </outline>
</glyph>
<glyph name="V" format="1">
  <advance width="800"/>
  <unicode hex="0056"/>
  <outline>
    <contour>
      <point x="553" y="642" type="line"/>
      <point x="598" y="636"/>
      <point x="623" y="617"/>
      <point x="609" y="585" type="curve" smooth="yes"/>
      <point x="392" y="76" type="line"/>
      <point x="369.0" y="0.0" type="line" smooth="yes"/>
      <point x="416.0" y="0.0" type="line" smooth="yes"/>
      <point x="667.0" y="585.0" type="line" smooth="yes"/>
      <point x="681.0" y="618.0"/>
      <point x="722.0" y="636.0"/>
      <point x="761.0" y="642.0" type="curve"/>
      <point x="761.0" y="660.0" type="line" smooth="yes"/>
      <point x="553" y="660" type="line" smooth="yes"/>
    </contour>
    <contour>
      <point x="437" y="92" type="line" smooth="yes"/>
      <point x="224" y="585" type="line" smooth="yes"/>
      <point x="210" y="618"/>
      <point x="242" y="634"/>
      <point x="284" y="642" type="curve"/>
      <point x="284" y="660" type="line" smooth="yes"/>
      <point x="37" y="660" type="line" smooth="yes"/>
      <point x="37" y="642" type="line"/>
      <point x="87" y="632"/>
      <point x="104" y="615"/>
      <point x="117" y="585" type="curve" smooth="yes"/>
      <point x="369" y="0" type="line" smooth="yes"/>
    </contour>
  </outline>
</glyph>
<glyph name="Z" format="1">
  <advance width="800"/>
  <unicode hex="005A"/>
  <outline>
    <contour>
      <point x="66" y="0" type="line" smooth="yes"/>
      <point x="190" y="0" type="line" smooth="yes"/>
      <point x="190" y="37" type="line" smooth="yes"/>
      <point x="686" y="623" type="line" smooth="yes"/>
      <point x="686" y="660" type="line" smooth="yes"/>
      <point x="562" y="660" type="line" smooth="yes"/>
      <point x="562" y="623" type="line" smooth="yes"/>
      <point x="66" y="37" type="line" smooth="yes"/>
    </contour>
    <contour>
      <point x="72" y="516" type="line" smooth="yes"/>
      <point x="108" y="516" type="line"/>
      <point x="132" y="592"/>
      <point x="174" y="618"/>
      <point x="299" y="618" type="curve"/>
      <point x="667" y="618" type="line" smooth="yes"/>
      <point x="667" y="660" type="line" smooth="yes"/>
      <point x="110" y="660" type="line" smooth="yes"/>
    </contour>
    <contour>
      <point x="740" y="184" type="line" smooth="yes"/>
      <point x="704" y="184" type="line"/>
      <point x="675" y="73"/>
      <point x="592" y="43"/>
      <point x="499" y="43" type="curve"/>
      <point x="96" y="43" type="line" smooth="yes"/>
      <point x="96" y="0" type="line" smooth="yes"/>
      <point x="688" y="0" type="line" smooth="yes"/>
    </contour>
  </outline>
</glyph>
<glyph name="underscore" format="1">
  <advance width="800"/>
  <unicode hex="005F"/>
  <outline>
    <contour>
      <point x="700" y="-131" type="line" smooth="yes"/>
      <point x="100" y="-131" type="line" smooth="yes"/>
      <point x="100" y="-59" type="line" smooth="yes"/>
      <point x="700" y="-59" type="line" smooth="yes"/>
    </contour>
  </outline>
</glyph>
<glyph name="c" format="1">
  <advance width="800"/>
  <unicode hex="0063"/>
  <outline>
    <contour>
      <point x="429" y="23" type="curve" smooth="yes"/>
      <point x="302" y="23"/>
      <point x="215.0" y="107.60655737704917"/>
      <point x="215" y="264" type="curve" smooth="yes"/>
      <point x="215" y="388"/>
      <point x="306.0" y="479.0"/>
      <point x="405" y="479" type="curve" smooth="yes"/>
      <point x="471" y="479"/>
      <point x="523.0" y="467.0"/>
      <point x="557" y="433" type="curve" smooth="yes"/>
      <point x="582" y="408"/>
      <point x="547" y="403"/>
      <point x="547" y="370" type="curve" smooth="yes"/>
      <point x="547" y="349"/>
      <point x="596" y="329"/>
      <point x="630" y="329" type="curve" smooth="yes"/>
      <point x="661" y="329"/>
      <point x="676" y="352"/>
      <point x="676" y="376" type="curve" smooth="yes"/>
      <point x="676" y="445"/>
      <point x="569" y="512"/>
      <point x="458" y="512" type="curve" smooth="yes"/>
      <point x="255" y="512"/>
      <point x="115" y="398"/>
      <point x="115" y="233" type="curve" smooth="yes"/>
      <point x="115" y="101"/>
      <point x="240" y="-12"/>
      <point x="385" y="-12" type="curve" smooth="yes"/>
      <point x="509" y="-12"/>
      <point x="606" y="23"/>
      <point x="682" y="112" type="curve" smooth="yes"/>
      <point x="699.0" y="132.0"/>
      <point x="617" y="147"/>
      <point x="595" y="115" type="curve" smooth="yes"/>
      <point x="554.5389617421185" y="54.80186990900555"/>
      <point x="476" y="23"/>
    </contour>
  </outline>
</glyph>
<glyph name="e" format="1">
  <advance width="800"/>
  <unicode hex="0065"/>
  <outline>
    <contour>
      <point x="439" y="20" type="curve" smooth="yes"/>
      <point x="317" y="20"/>
      <point x="216" y="118"/>
      <point x="216" y="264" type="curve" smooth="yes"/>
      <point x="216" y="372"/>
      <point x="288" y="479"/>
      <point x="397" y="479" type="curve" smooth="yes"/>
      <point x="493" y="479"/>
      <point x="570" y="422"/>
      <point x="589" y="336" type="curve" smooth="yes"/>
      <point x="591" y="327"/>
      <point x="584" y="318"/>
      <point x="575" y="318" type="curve" smooth="yes"/>
      <point x="200" y="318" type="line" smooth="yes"/>
      <point x="200" y="284" type="line" smooth="yes"/>
      <point x="642" y="284" type="line" smooth="yes"/>
      <point x="662" y="284"/>
      <point x="683" y="299"/>
      <point x="683" y="320" type="curve" smooth="yes"/>
      <point x="683" y="417"/>
      <point x="565" y="512"/>
      <point x="440" y="512" type="curve" smooth="yes"/>
      <point x="267" y="512"/>
      <point x="115" y="414"/>
      <point x="115" y="233" type="curve" smooth="yes"/>
      <point x="115" y="100"/>
      <point x="234" y="-12"/>
      <point x="397" y="-12" type="curve" smooth="yes"/>
      <point x="517" y="-12"/>
      <point x="607" y="23"/>
      <point x="683" y="112" type="curve" smooth="yes"/>
      <point x="700" y="132"/>
      <point x="621" y="146"/>
      <point x="596" y="115" type="curve" smooth="yes"/>
      <point x="558" y="68"/>
      <point x="506" y="20"/>
    </contour>
  </outline>
</glyph>
<glyph name="j" format="1">
  <advance width="800"/>
  <unicode hex="006A"/>
  <outline>
    <contour>
      <point x="599" y="688" type="curve" smooth="yes"/>
      <point x="599" y="655"/>
      <point x="572" y="628"/>
      <point x="539" y="628" type="curve" smooth="yes"/>
      <point x="506" y="628"/>
      <point x="479" y="655"/>
      <point x="479" y="688" type="curve" smooth="yes"/>
      <point x="479" y="721"/>
      <point x="506" y="748"/>
      <point x="539" y="748" type="curve" smooth="yes"/>
      <point x="572" y="748"/>
      <point x="599" y="721"/>
    </contour>
    <contour>
      <point x="498" y="457" type="curve" smooth="yes"/>
      <point x="487" y="0" type="line" smooth="yes"/>
      <point x="484" y="-118"/>
      <point x="407" y="-182"/>
      <point x="370" y="-182" type="curve" smooth="yes"/>
      <point x="314" y="-182"/>
      <point x="267" y="-151"/>
      <point x="244" y="-125" type="curve" smooth="yes"/>
      <point x="238" y="-119"/>
      <point x="229" y="-116"/>
      <point x="218" y="-116" type="curve" smooth="yes"/>
      <point x="184" y="-116"/>
      <point x="126" y="-142"/>
      <point x="142" y="-160" type="curve" smooth="yes"/>
      <point x="177" y="-199"/>
      <point x="256" y="-220"/>
      <point x="317" y="-220" type="curve" smooth="yes"/>
      <point x="416" y="-220"/>
      <point x="572" y="-127"/>
      <point x="575" y="0" type="curve" smooth="yes"/>
      <point x="586" y="473" type="line" smooth="yes"/>
      <point x="586" y="494"/>
      <point x="567" y="513"/>
      <point x="546" y="513" type="curve" smooth="yes"/>
      <point x="517" y="513" type="line" smooth="yes"/>
      <point x="426" y="513"/>
      <point x="256" y="435"/>
      <point x="256" y="378" type="curve" smooth="yes"/>
      <point x="256" y="354"/>
      <point x="271" y="331"/>
      <point x="302" y="331" type="curve" smooth="yes"/>
      <point x="336" y="331"/>
      <point x="385" y="351"/>
      <point x="385" y="372" type="curve" smooth="yes"/>
      <point x="385" y="405"/>
      <point x="350" y="410"/>
      <point x="375" y="435" type="curve" smooth="yes"/>
      <point x="400" y="460"/>
      <point x="448" y="477"/>
      <point x="475" y="477" type="curve" smooth="yes"/>
      <point x="489" y="477"/>
      <point x="498" y="473"/>
    </contour>
  </outline>
</glyph>
<glyph name="k" format="1">
  <advance width="800"/>
  <unicode hex="006B"/>
  <outline>
    <contour>
      <point x="237" y="0" type="line" smooth="yes"/>
      <point x="237" y="718" type="line" smooth="yes"/>
      <point x="237" y="729"/>
      <point x="228" y="738"/>
      <point x="217" y="738" type="curve" smooth="yes"/>
      <point x="149" y="738" type="line" smooth="yes"/>
      <point x="149" y="0" type="line" smooth="yes"/>
    </contour>
    <contour>
      <point x="80" y="18" type="line"/>
      <point x="123" y="26"/>
      <point x="149" y="47"/>
      <point x="149" y="76" type="curve"/>
      <point x="149" y="0" type="line" smooth="yes"/>
      <point x="80" y="0" type="line" smooth="yes"/>
    </contour>
    <contour>
      <point x="80" y="720" type="line"/>
      <point x="123" y="712"/>
      <point x="149" y="691"/>
      <point x="149" y="662" type="curve"/>
      <point x="149" y="738" type="line" smooth="yes"/>
      <point x="80" y="738" type="line" smooth="yes"/>
    </contour>
    <contour>
      <point x="237" y="76" type="move"/>
      <point x="237" y="0" type="line" smooth="yes"/>
      <point x="306" y="0" type="line" smooth="yes"/>
      <point x="306" y="18" type="line"/>
      <point x="263" y="26"/>
      <point x="237" y="47"/>
      <point x="237" y="76" type="curve"/>
    </contour>
    <contour>
      <point x="291" y="295" type="line" smooth="yes"/>
      <point x="509" y="75" type="line" smooth="yes"/>
      <point x="550" y="33"/>
      <point x="526" y="17"/>
      <point x="477" y="17" type="curve"/>
      <point x="477" y="0" type="line" smooth="yes"/>
      <point x="720.0" y="0.0" type="line" smooth="yes"/>
      <point x="720.0" y="18.0" type="line"/>
      <point x="673.0" y="20.0"/>
      <point x="644.0" y="42.0"/>
      <point x="612.0" y="75.0" type="curve" smooth="yes"/>
      <point x="361" y="328" type="line" smooth="yes"/>
    </contour>
    <contour>
      <point x="226" y="226" type="line" smooth="yes"/>
      <point x="537" y="432" type="line" smooth="yes"/>
      <point x="574" y="456"/>
      <point x="610" y="476"/>
      <point x="651" y="482" type="curve"/>
      <point x="651" y="500" type="line" smooth="yes"/>
      <point x="440" y="500" type="line" smooth="yes"/>
      <point x="440" y="482" type="line"/>
      <point x="486" y="474"/>
      <point x="511" y="455"/>
      <point x="476" y="432" type="curve" smooth="yes"/>
      <point x="165" y="226" type="line" smooth="yes"/>
    </contour>
  </outline>
</glyph>
<glyph name="n" format="1">
  <advance width="800"/>
  <unicode hex="006E"/>
  <outline>
    <contour>
      <point x="523" y="512" type="curve" smooth="yes"/>
      <point x="427" y="512"/>
      <point x="330" y="473"/>
      <point x="237" y="420" type="curve"/>
      <point x="237" y="383" type="line"/>
      <point x="339" y="452"/>
      <point x="393" y="463"/>
      <point x="469" y="463" type="curve" smooth="yes"/>
      <point x="519" y="463"/>
      <point x="563" y="434"/>
      <point x="563" y="363" type="curve" smooth="yes"/>
      <point x="563" y="0" type="line" smooth="yes"/>
      <point x="651" y="0" type="line" smooth="yes"/>
      <point x="651" y="363" type="line" smooth="yes"/>
      <point x="651" y="466"/>
      <point x="599" y="512"/>
    </contour>
    <contour>
      <point x="237" y="0" type="line" smooth="yes"/>
      <point x="149" y="0" type="line" smooth="yes"/>
      <point x="149" y="500" type="line" smooth="yes"/>
      <point x="217" y="500" type="line" smooth="yes"/>
      <point x="228" y="500"/>
      <point x="237" y="491"/>
      <point x="237" y="480" type="curve" smooth="yes"/>
    </contour>
    <contour>
      <point x="80" y="18" type="line"/>
      <point x="123" y="26"/>
      <point x="149" y="47"/>
      <point x="149" y="76" type="curve"/>
      <point x="149" y="0" type="line" smooth="yes"/>
      <point x="80" y="0" type="line" smooth="yes"/>
    </contour>
    <contour>
      <point x="80" y="482" type="line"/>
      <point x="123" y="474"/>
      <point x="149" y="453"/>
      <point x="149" y="424" type="curve"/>
      <point x="149" y="500" type="line" smooth="yes"/>
      <point x="80" y="500" type="line" smooth="yes"/>
    </contour>
    <contour>
      <point x="306" y="18" type="line"/>
      <point x="263" y="26"/>
      <point x="237" y="47"/>
      <point x="237" y="76" type="curve"/>
      <point x="237" y="0" type="line" smooth="yes"/>
      <point x="306" y="0" type="line" smooth="yes"/>
    </contour>
    <contour>
      <point x="494" y="18" type="line"/>
      <point x="537" y="26"/>
      <point x="563" y="47"/>
      <point x="563" y="76" type="curve"/>
      <point x="563" y="0" type="line" smooth="yes"/>
      <point x="494" y="0" type="line" smooth="yes"/>
    </contour>
    <contour>
      <point x="720" y="18" type="line"/>
      <point x="677" y="26"/>
      <point x="651" y="47"/>
      <point x="651" y="76" type="curve"/>
      <point x="651" y="0" type="line" smooth="yes"/>
      <point x="720" y="0" type="line" smooth="yes"/>
    </contour>
  </outline>
</glyph>
<glyph name="o" format="1">
  <advance width="800"/>
  <unicode hex="006F"/>
  <outline>
    <contour>
      <point x="193" y="262" type="curve" smooth="yes"/>
      <point x="193" y="390"/>
      <point x="273" y="478"/>
      <point x="389" y="478" type="curve" smooth="yes"/>
      <point x="514" y="478"/>
      <point x="607" y="375"/>
      <point x="607" y="237" type="curve" smooth="yes"/>
      <point x="607" y="110"/>
      <point x="526" y="22"/>
      <point x="410" y="22" type="curve" smooth="yes"/>
      <point x="285" y="22"/>
      <point x="193" y="124"/>
    </contour>
    <contour>
      <point x="708" y="266" type="curve" smooth="yes"/>
      <point x="708" y="411"/>
      <point x="589" y="512"/>
      <point x="418" y="512" type="curve" smooth="yes"/>
      <point x="231" y="512"/>
      <point x="92" y="394"/>
      <point x="92" y="234" type="curve" smooth="yes"/>
      <point x="92" y="89"/>
      <point x="211" y="-12"/>
      <point x="381" y="-12" type="curve" smooth="yes"/>
      <point x="568" y="-12"/>
      <point x="708" y="107"/>
    </contour>
  </outline>
</glyph>
<glyph name="r" format="1">
  <advance width="800"/>
  <unicode hex="0072"/>
  <outline>
    <contour>
      <point x="100" y="500" type="line" smooth="yes"/>
      <point x="100" y="482" type="line"/>
      <point x="143" y="474"/>
      <point x="169" y="453"/>
      <point x="169" y="424" type="curve" smooth="yes"/>
      <point x="169" y="75" type="line"/>
      <point x="169" y="46"/>
      <point x="143" y="26"/>
      <point x="100" y="18" type="curve"/>
      <point x="100" y="0" type="line" smooth="yes"/>
      <point x="326" y="0" type="line" smooth="yes"/>
      <point x="326" y="18" type="line"/>
      <point x="283" y="26"/>
      <point x="257" y="47"/>
      <point x="257" y="76" type="curve"/>
      <point x="257" y="480" type="line" smooth="yes"/>
      <point x="257" y="491"/>
      <point x="248" y="500"/>
      <point x="237" y="500" type="curve" smooth="yes"/>
    </contour>
    <contour>
      <point x="552" y="511" type="curve" smooth="yes"/>
      <point x="438" y="511"/>
      <point x="329" y="439"/>
      <point x="250" y="366" type="curve"/>
      <point x="250" y="289" type="line"/>
      <point x="297.1264816632366" y="376.2341256319486"/>
      <point x="407" y="467"/>
      <point x="510" y="467" type="curve" smooth="yes"/>
      <point x="544" y="467"/>
      <point x="552.0" y="447.2"/>
      <point x="552" y="440" type="curve" smooth="yes"/>
      <point x="552.0" y="430.4"/>
      <point x="541" y="424"/>
      <point x="541" y="398" type="curve" smooth="yes"/>
      <point x="541.0" y="365.0625"/>
      <point x="577" y="347"/>
      <point x="605" y="347" type="curve" smooth="yes"/>
      <point x="643" y="347"/>
      <point x="678.0" y="381.62295081967216"/>
      <point x="678" y="411" type="curve" smooth="yes"/>
      <point x="678.0" y="471.3960396039604"/>
      <point x="622" y="511"/>
    </contour>
  </outline>
</glyph>
<glyph name="s" format="1">
  <advance width="800"/>
  <unicode hex="0073"/>
  <outline>
    <contour>
      <point x="156" y="363" type="curve" smooth="yes"/>
      <point x="156" y="209"/>
      <point x="581" y="237"/>
      <point x="581" y="106" type="curve" smooth="yes"/>
      <point x="581" y="53"/>
      <point x="523" y="17"/>
      <point x="435" y="17" type="curve" smooth="yes"/>
      <point x="322" y="17"/>
      <point x="219" y="59"/>
      <point x="172" y="191" type="curve"/>
      <point x="135" y="191" type="line"/>
      <point x="135" y="0" type="line"/>
      <point x="160" y="0" type="line"/>
      <point x="188" y="52" type="line"/>
      <point x="267" y="7"/>
      <point x="336" y="-11"/>
      <point x="409" y="-11" type="curve" smooth="yes"/>
      <point x="549" y="-11"/>
      <point x="661" y="56"/>
      <point x="661" y="139" type="curve" smooth="yes"/>
      <point x="661" y="304"/>
      <point x="238" y="276"/>
      <point x="238" y="389" type="curve" smooth="yes"/>
      <point x="238" y="450"/>
      <point x="289" y="483"/>
      <point x="385" y="483" type="curve" smooth="yes"/>
      <point x="474.0085836909871" y="483.0"/>
      <point x="570.1762160656424" y="436.4991753923847"/>
      <point x="608" y="329" type="curve"/>
      <point x="628" y="329" type="line"/>
      <point x="628" y="511" type="line"/>
      <point x="606" y="511" type="line"/>
      <point x="573" y="455" type="line"/>
      <point x="509.47028596951054" y="496.3905712622886"/>
      <point x="466.0752688172043" y="513.0"/>
      <point x="397" y="513" type="curve" smooth="yes"/>
      <point x="260" y="513"/>
      <point x="156" y="448"/>
    </contour>
  </outline>
</glyph>
<glyph name="u" format="1">
  <advance width="800"/>
  <unicode hex="0075"/>
  <outline>
    <contour>
      <point x="563" y="500" type="line" smooth="yes"/>
      <point x="631" y="500" type="line" smooth="yes"/>
      <point x="642" y="500"/>
      <point x="651" y="491"/>
      <point x="651" y="480" type="curve" smooth="yes"/>
      <point x="651" y="0" type="line" smooth="yes"/>
      <point x="593" y="0" type="line" smooth="yes"/>
      <point x="576" y="0"/>
      <point x="563" y="13"/>
      <point x="563" y="30" type="curve" smooth="yes"/>
    </contour>
    <contour>
      <point x="720" y="18" type="line"/>
      <point x="677" y="26"/>
      <point x="651" y="47"/>
      <point x="651" y="76" type="curve"/>
      <point x="651" y="0" type="line" smooth="yes"/>
      <point x="720" y="0" type="line" smooth="yes"/>
    </contour>
    <contour>
      <point x="494" y="482" type="line"/>
      <point x="537" y="474"/>
      <point x="563" y="453"/>
      <point x="563" y="424" type="curve"/>
      <point x="563" y="500" type="line" smooth="yes"/>
      <point x="494" y="500" type="line" smooth="yes"/>
    </contour>
    <contour>
      <point x="80" y="482" type="line"/>
      <point x="123" y="474"/>
      <point x="149" y="453"/>
      <point x="149" y="424" type="curve"/>
      <point x="149" y="500" type="line" smooth="yes"/>
      <point x="80" y="500" type="line" smooth="yes"/>
    </contour>
    <contour>
      <point x="217" y="500" type="curve" smooth="yes"/>
      <point x="149.0" y="500.0" type="line" smooth="yes"/>
      <point x="149.0" y="137.0" type="line" smooth="yes"/>
      <point x="149.0" y="34.0"/>
      <point x="201.0" y="-12.0"/>
      <point x="277.0" y="-12.0" type="curve" smooth="yes"/>
      <point x="373.0" y="-12.0"/>
      <point x="470.0" y="27.0"/>
      <point x="563.0" y="80.0" type="curve"/>
      <point x="563.0" y="117.0" type="line"/>
      <point x="461.0" y="48.0"/>
      <point x="407.0" y="37.0"/>
      <point x="331.0" y="37.0" type="curve" smooth="yes"/>
      <point x="281.0" y="37.0"/>
      <point x="237" y="66"/>
      <point x="237.0" y="137.0" type="curve" smooth="yes"/>
      <point x="237" y="480" type="line" smooth="yes"/>
      <point x="237" y="491"/>
      <point x="228" y="500"/>
    </contour>
  </outline>
</glyph>
<glyph name="y" format="1">
  <advance width="800"/>
  <unicode hex="0079"/>
  <outline>
    <contour>
      <point x="430" y="100" type="line" smooth="yes"/>
      <point x="276" y="425" type="line" smooth="yes"/>
      <point x="255" y="469"/>
      <point x="268" y="483"/>
      <point x="308" y="483" type="curve"/>
      <point x="308" y="500" type="line" smooth="yes"/>
      <point x="76" y="500" type="line" smooth="yes"/>
      <point x="76" y="482" type="line"/>
      <point x="123" y="480"/>
      <point x="166" y="463"/>
      <point x="184" y="425" type="curve" smooth="yes"/>
      <point x="378" y="7" type="line" smooth="yes"/>
    </contour>
    <contour>
      <point x="111" y="-185" type="curve" smooth="yes"/>
      <point x="111" y="-223"/>
      <point x="147" y="-250"/>
      <point x="182" y="-250" type="curve" smooth="yes"/>
      <point x="250" y="-250"/>
      <point x="317" y="-201"/>
      <point x="353" y="-125" type="curve" smooth="yes"/>
      <point x="610" y="425" type="line" smooth="yes"/>
      <point x="628" y="464"/>
      <point x="685" y="476"/>
      <point x="724" y="482" type="curve"/>
      <point x="724" y="500" type="line" smooth="yes"/>
      <point x="530" y="500" type="line" smooth="yes"/>
      <point x="530" y="482" type="line"/>
      <point x="575" y="476"/>
      <point x="585" y="466"/>
      <point x="566" y="425" type="curve" smooth="yes"/>
      <point x="309" y="-125" type="line" smooth="yes"/>
      <point x="291" y="-163"/>
      <point x="270" y="-184"/>
      <point x="244" y="-184" type="curve" smooth="yes"/>
      <point x="223" y="-184"/>
      <point x="215" y="-138"/>
      <point x="157" y="-138" type="curve" smooth="yes"/>
      <point x="126" y="-138"/>
      <point x="111" y="-161"/>
    </contour>
  </outline>
</glyph>
<glyph name="z" format="1">
  <advance width="800"/>
  <unicode hex="007A"/>
  <outline>
    <contour>
      <point x="114" y="356" type="line" smooth="yes"/>
      <point x="150" y="356" type="line"/>
      <point x="180" y="451"/>
      <point x="248" y="463"/>
      <point x="341" y="463" type="curve"/>
      <point x="519" y="463" type="line" smooth="yes"/>
      <point x="102" y="37" type="line" smooth="yes"/>
      <point x="102" y="0" type="line" smooth="yes"/>
      <point x="646" y="0" type="line" smooth="yes"/>
      <point x="698" y="184" type="line" smooth="yes"/>
      <point x="662" y="184" type="line"/>
      <point x="633" y="73"/>
      <point x="550" y="37"/>
      <point x="457" y="37" type="curve"/>
      <point x="216" y="37" type="line" smooth="yes"/>
      <point x="633" y="463" type="line" smooth="yes"/>
      <point x="633" y="500" type="line" smooth="yes"/>
      <point x="152" y="500" type="line" smooth="yes"/>
    </contour>
  </outline>
</glyph>
<glyph name="braceright" format="1">
  <advance width="800"/>
  <unicode hex="007D"/>
  <outline>
    <contour>
      <point x="634" y="250" type="curve"/>
      <point x="634" y="273" type="line"/>
      <point x="495" y="294"/>
      <point x="402" y="304"/>
      <point x="402" y="389" type="curve" smooth="yes"/>
      <point x="402" y="447"/>
      <point x="439" y="489"/>
      <point x="439" y="546" type="curve" smooth="yes"/>
      <point x="439" y="648"/>
      <point x="287" y="692"/>
      <point x="166" y="692" type="curve"/>
      <point x="166" y="655" type="line"/>
      <point x="256" y="655"/>
      <point x="349" y="630"/>
      <point x="349" y="550" type="curve" smooth="yes"/>
      <point x="349" y="499"/>
      <point x="311" y="442"/>
      <point x="311" y="392" type="curve" smooth="yes"/>
      <point x="311" y="279"/>
      <point x="492" y="250"/>
    </contour>
    <contour>
      <point x="634" y="227" type="line"/>
      <point x="634" y="272" type="line"/>
      <point x="510" y="272" type="line"/>
      <point x="510" y="227" type="line"/>
    </contour>
    <contour>
      <point x="634" y="250" type="line"/>
      <point x="492" y="250"/>
      <point x="311" y="221"/>
      <point x="311" y="108" type="curve" smooth="yes"/>
      <point x="311" y="58"/>
      <point x="349" y="1"/>
      <point x="349" y="-50" type="curve" smooth="yes"/>
      <point x="349" y="-130"/>
      <point x="256" y="-155"/>
      <point x="166" y="-155" type="curve"/>
      <point x="166" y="-192" type="line"/>
      <point x="287" y="-192"/>
      <point x="439" y="-148"/>
      <point x="439" y="-46" type="curve" smooth="yes"/>
      <point x="439" y="11"/>
      <point x="402" y="53"/>
      <point x="402" y="111" type="curve" smooth="yes"/>
      <point x="402" y="196"/>
      <point x="495" y="206"/>
      <point x="634" y="227" type="curve"/>
    </contour>
  </outline>
</glyph>
<glyph name="B1" format="1">
  <advance width="800"/>
  <outline>
    <contour>
      <point x="227" y="0" type="line"/>
      <point x="139" y="0" type="line"/>
      <point x="139" y="660" type="line"/>
      <point x="227" y="660" type="line"/>
    </contour>
    <contour>
      <point x="70" y="18" type="line"/>
      <point x="113" y="26"/>
      <point x="139" y="47"/>
      <point x="139" y="76" type="curve"/>
      <point x="139" y="0" type="line"/>
      <point x="70" y="0" type="line"/>
    </contour>
    <contour>
      <point x="70" y="642" type="line"/>
      <point x="113" y="634"/>
      <point x="139" y="613"/>
      <point x="139" y="584" type="curve"/>
      <point x="139" y="660" type="line"/>
      <point x="70" y="660" type="line"/>
    </contour>
    <contour>
      <point x="419" y="366" type="curve" smooth="yes"/>
      <point x="227" y="366" type="line"/>
      <point x="227" y="329" type="line"/>
      <point x="419" y="329" type="line" smooth="yes"/>
      <point x="575" y="329"/>
      <point x="644" y="264"/>
      <point x="644" y="195" type="curve" smooth="yes"/>
      <point x="644" y="117"/>
      <point x="556" y="37"/>
      <point x="409" y="37" type="curve" smooth="yes"/>
      <point x="227" y="37" type="line"/>
      <point x="227" y="0" type="line"/>
      <point x="409" y="0" type="line" smooth="yes"/>
      <point x="610" y="0"/>
      <point x="743" y="108"/>
      <point x="743" y="207" type="curve" smooth="yes"/>
      <point x="743" y="290"/>
      <point x="648" y="366"/>
    </contour>
    <contour>
      <point x="227" y="660" type="line"/>
      <point x="227" y="623" type="line"/>
      <point x="414" y="623" type="line" smooth="yes"/>
      <point x="512" y="623"/>
      <point x="565" y="557"/>
      <point x="565" y="492" type="curve" smooth="yes"/>
      <point x="565" y="429"/>
      <point x="515" y="366"/>
      <point x="409" y="366" type="curve" smooth="yes"/>
      <point x="227" y="366" type="line"/>
      <point x="227" y="329" type="line"/>
      <point x="367" y="329" type="line" smooth="yes"/>
      <point x="569" y="329"/>
      <point x="664" y="427"/>
      <point x="664" y="516" type="curve" smooth="yes"/>
      <point x="664" y="591"/>
      <point x="597" y="660"/>
      <point x="472" y="660" type="curve" smooth="yes"/>
    </contour>
  </outline>
</glyph>
<glyph name="B2" format="1">
  <advance width="800"/>
  <outline>
    <contour>
      <point x="217" y="700" type="line" smooth="yes"/>
      <point x="217" y="663" type="line" smooth="yes"/>
      <point x="404" y="663" type="line" smooth="yes"/>
      <point x="483" y="663"/>
      <point x="554" y="604"/>
      <point x="554" y="522" type="curve" smooth="yes"/>
      <point x="554" y="435"/>
      <point x="477" y="386"/>
      <point x="399" y="386" type="curve" smooth="yes"/>
      <point x="217" y="386" type="line" smooth="yes"/>
      <point x="217" y="349" type="line" smooth="yes"/>
      <point x="357" y="349" type="line" smooth="yes"/>
      <point x="503" y="349"/>
      <point x="654" y="435"/>
      <point x="654" y="539" type="curve" smooth="yes"/>
      <point x="654" y="638"/>
      <point x="573" y="700"/>
      <point x="462" y="700" type="curve" smooth="yes"/>
    </contour>
    <contour>
      <point x="409" y="386" type="curve" smooth="yes"/>
      <point x="217" y="386" type="line" smooth="yes"/>
      <point x="217" y="349" type="line" smooth="yes"/>
      <point x="409" y="349" type="line" smooth="yes"/>
      <point x="538" y="349"/>
      <point x="632" y="320"/>
      <point x="632" y="181" type="curve" smooth="yes"/>
      <point x="632" y="87"/>
      <point x="474" y="33"/>
      <point x="399" y="33" type="curve"/>
      <point x="217" y="33" type="line" smooth="yes"/>
      <point x="217" y="0" type="line"/>
      <point x="399" y="0" type="line" smooth="yes"/>
      <point x="524" y="0"/>
      <point x="731" y="67"/>
      <point x="731" y="215" type="curve" smooth="yes"/>
      <point x="731" y="351"/>
      <point x="573" y="386"/>
    </contour>
    <contour>
      <point x="217" y="0" type="line" smooth="yes"/>
      <point x="129" y="0" type="line" smooth="yes"/>
      <point x="129" y="700" type="line" smooth="yes"/>
      <point x="217" y="700" type="line" smooth="yes"/>
    </contour>
    <contour>
      <point x="60" y="18" type="line"/>
      <point x="103" y="26"/>
      <point x="129" y="47"/>
      <point x="129" y="76" type="curve"/>
      <point x="129" y="0" type="line" smooth="yes"/>
      <point x="60" y="0" type="line" smooth="yes"/>
    </contour>
    <contour>
      <point x="60" y="682" type="line"/>
      <point x="103" y="674"/>
      <point x="129" y="653"/>
      <point x="129" y="624" type="curve"/>
      <point x="129" y="700" type="line" smooth="yes"/>
      <point x="60" y="700" type="line" smooth="yes"/>
    </contour>
  </outline>
</glyph>
<glyph name="C1" format="1">
  <advance width="800"/>
  <outline>
    <contour>
      <point x="647" y="162" type="curve" smooth="yes"/>
      <point x="590" y="68"/>
      <point x="520" y="25"/>
      <point x="447" y="25" type="curve" smooth="yes"/>
      <point x="310" y="25"/>
      <point x="175" y="168"/>
      <point x="175" y="350" type="curve" smooth="yes"/>
      <point x="175" y="547"/>
      <point x="291" y="636"/>
      <point x="409" y="636" type="curve" smooth="yes"/>
      <point x="518" y="636"/>
      <point x="628" y="561"/>
      <point x="651" y="423" type="curve"/>
      <point x="680" y="423" type="line" smooth="yes"/>
      <point x="680" y="653" type="line" smooth="yes"/>
      <point x="654" y="653" type="line" smooth="yes"/>
      <point x="627" y="620" type="line"/>
      <point x="591" y="656"/>
      <point x="526" y="676"/>
      <point x="454" y="676" type="curve" smooth="yes"/>
      <point x="286" y="676"/>
      <point x="77" y="571"/>
      <point x="77" y="323" type="curve" smooth="yes"/>
      <point x="77" y="96"/>
      <point x="245" y="-11"/>
      <point x="413" y="-11" type="curve" smooth="yes"/>
      <point x="542" y="-11"/>
      <point x="671" y="53"/>
      <point x="722" y="173" type="curve" smooth="yes"/>
      <point x="730" y="192"/>
      <point x="664" y="190"/>
    </contour>
  </outline>
</glyph>
<glyph name="G1" format="1">
  <advance width="800"/>
  <outline>
    <contour>
      <point x="523" y="255" type="line"/>
      <point x="566" y="247"/>
      <point x="592" y="226"/>
      <point x="592" y="197" type="curve"/>
      <point x="592" y="273" type="line" smooth="yes"/>
      <point x="523" y="273" type="line" smooth="yes"/>
    </contour>
    <contour>
      <point x="761" y="255" type="line"/>
      <point x="718" y="247"/>
      <point x="692" y="226"/>
      <point x="692" y="197" type="curve"/>
      <point x="692" y="273" type="line" smooth="yes"/>
      <point x="761" y="273" type="line" smooth="yes"/>
    </contour>
    <contour>
      <point x="693" y="126" type="curve"/>
      <point x="692" y="273" type="line" smooth="yes"/>
      <point x="592" y="273" type="line" smooth="yes"/>
      <point x="592" y="107" type="line"/>
      <point x="540" y="51"/>
      <point x="469" y="34"/>
      <point x="425" y="34" type="curve" smooth="yes"/>
      <point x="283" y="34"/>
      <point x="152" y="125"/>
      <point x="152" y="341" type="curve" smooth="yes"/>
      <point x="152" y="506"/>
      <point x="268" y="627"/>
      <point x="387" y="627" type="curve" smooth="yes"/>
      <point x="495" y="627"/>
      <point x="618" y="574"/>
      <point x="662" y="449" type="curve"/>
      <point x="691" y="449" type="line"/>
      <point x="691" y="648" type="line"/>
      <point x="665" y="648" type="line"/>
      <point x="622" y="600" type="line"/>
      <point x="546" y="649"/>
      <point x="479" y="672"/>
      <point x="395" y="672" type="curve" smooth="yes"/>
      <point x="216" y="672"/>
      <point x="39" y="560"/>
      <point x="39" y="320" type="curve" smooth="yes"/>
      <point x="39" y="90"/>
      <point x="229" y="-12"/>
      <point x="414" y="-12" type="curve" smooth="yes"/>
      <point x="535" y="-12"/>
      <point x="623" y="27"/>
    </contour>
  </outline>
</glyph>
<glyph name="I3" format="1">
  <advance width="800"/>
  <outline>
    <contour>
      <point x="356" y="660" type="line" smooth="yes"/>
      <point x="356" y="0" type="line" smooth="yes"/>
      <point x="444" y="0" type="line" smooth="yes"/>
      <point x="444" y="660" type="line" smooth="yes"/>
    </contour>
    <contour>
      <point x="356" y="95" type="line"/>
      <point x="356" y="66"/>
      <point x="330" y="45"/>
      <point x="287" y="37" type="curve"/>
      <point x="125" y="37" type="line" smooth="yes"/>
      <point x="125" y="0" type="line" smooth="yes"/>
      <point x="356" y="0" type="line" smooth="yes"/>
    </contour>
    <contour>
      <point x="675" y="0" type="line" smooth="yes"/>
      <point x="675" y="37" type="line" smooth="yes"/>
      <point x="513" y="37" type="line"/>
      <point x="470" y="45"/>
      <point x="444" y="66"/>
      <point x="444" y="95" type="curve"/>
      <point x="444" y="0" type="line"/>
    </contour>
    <contour>
      <point x="356" y="565" type="curve"/>
      <point x="356" y="660" type="line" smooth="yes"/>
      <point x="125" y="660" type="line" smooth="yes"/>
      <point x="125" y="623" type="line" smooth="yes"/>
      <point x="287" y="623" type="line"/>
      <point x="330" y="615"/>
      <point x="356" y="594"/>
    </contour>
    <contour>
      <point x="675" y="660" type="line" smooth="yes"/>
      <point x="444" y="660" type="line" smooth="yes"/>
      <point x="444" y="565" type="line"/>
      <point x="444" y="594"/>
      <point x="470" y="615"/>
      <point x="513" y="623" type="curve"/>
      <point x="675" y="623" type="line" smooth="yes"/>
    </contour>
  </outline>
</glyph>
<glyph name="I4" format="1">
  <advance width="800"/>
  <outline>
    <contour>
      <point x="356" y="660" type="line" smooth="yes"/>
      <point x="356" y="0" type="line" smooth="yes"/>
      <point x="444" y="0" type="line" smooth="yes"/>
      <point x="444" y="660" type="line" smooth="yes"/>
    </contour>
    <contour>
      <point x="641" y="672" type="line"/>
      <point x="255" y="672" type="line" smooth="yes"/>
      <point x="191" y="672"/>
      <point x="122" y="645"/>
      <point x="122" y="591" type="curve" smooth="yes"/>
      <point x="122" y="574"/>
      <point x="134" y="556"/>
      <point x="157" y="556" type="curve" smooth="yes"/>
      <point x="181" y="556"/>
      <point x="217" y="571"/>
      <point x="217" y="586" type="curve" smooth="yes"/>
      <point x="217" y="611"/>
      <point x="178" y="606"/>
      <point x="198" y="624" type="curve" smooth="yes"/>
      <point x="213" y="636"/>
      <point x="251" y="635"/>
      <point x="275" y="635" type="curve" smooth="yes"/>
      <point x="641" y="635" type="line"/>
    </contour>
    <contour>
      <point x="159" y="0" type="line"/>
      <point x="545" y="0" type="line" smooth="yes"/>
      <point x="609" y="0"/>
      <point x="678" y="27"/>
      <point x="678" y="81" type="curve" smooth="yes"/>
      <point x="678" y="98"/>
      <point x="666" y="116"/>
      <point x="643" y="116" type="curve" smooth="yes"/>
      <point x="619" y="116"/>
      <point x="583" y="101"/>
      <point x="583" y="86" type="curve" smooth="yes"/>
      <point x="583" y="61"/>
      <point x="622" y="66"/>
      <point x="602" y="48" type="curve" smooth="yes"/>
      <point x="587" y="36"/>
      <point x="549" y="37"/>
      <point x="525" y="37" type="curve" smooth="yes"/>
      <point x="159" y="37" type="line"/>
    </contour>
  </outline>
</glyph>
<glyph name="I5" format="1">
  <advance width="800"/>
  <outline>
    <contour>
      <point x="356" y="640" type="line" smooth="yes"/>
      <point x="356" y="20" type="line" smooth="yes"/>
      <point x="444" y="20" type="line" smooth="yes"/>
      <point x="444" y="640" type="line" smooth="yes"/>
    </contour>
    <contour>
      <point x="524" y="24" type="curve" smooth="yes"/>
      <point x="399" y="11"/>
      <point x="321" y="113"/>
      <point x="133" y="27" type="curve"/>
      <point x="147" y="-7" type="line"/>
      <point x="321" y="73"/>
      <point x="393" y="-32"/>
      <point x="539" y="-9" type="curve" smooth="yes"/>
      <point x="604" y="2"/>
      <point x="675" y="27"/>
      <point x="675" y="81" type="curve" smooth="yes"/>
      <point x="675" y="98"/>
      <point x="663" y="116"/>
      <point x="640" y="116" type="curve" smooth="yes"/>
      <point x="616" y="116"/>
      <point x="580" y="101"/>
      <point x="580" y="86" type="curve" smooth="yes"/>
      <point x="580" y="61"/>
      <point x="619" y="66"/>
      <point x="599" y="48" type="curve" smooth="yes"/>
      <point x="584" y="36"/>
      <point x="549" y="27"/>
    </contour>
    <contour>
      <point x="276" y="636" type="curve" smooth="yes"/>
      <point x="401" y="649"/>
      <point x="479" y="547"/>
      <point x="667" y="633" type="curve"/>
      <point x="653" y="667" type="line"/>
      <point x="479" y="587"/>
      <point x="407" y="692"/>
      <point x="261" y="669" type="curve" smooth="yes"/>
      <point x="196" y="658"/>
      <point x="125" y="633"/>
      <point x="125" y="579" type="curve" smooth="yes"/>
      <point x="125" y="562"/>
      <point x="137" y="544"/>
      <point x="160" y="544" type="curve" smooth="yes"/>
      <point x="184" y="544"/>
      <point x="220" y="559"/>
      <point x="220" y="574" type="curve" smooth="yes"/>
      <point x="220" y="599"/>
      <point x="181" y="594"/>
      <point x="201" y="612" type="curve" smooth="yes"/>
      <point x="216" y="624"/>
      <point x="251" y="633"/>
    </contour>
  </outline>
</glyph>
<glyph name="J2" format="1">
  <advance width="800"/>
  <outline>
    <contour>
      <point x="168" y="168" type="curve" smooth="yes"/>
      <point x="168" y="70"/>
      <point x="256" y="-12"/>
      <point x="361" y="-12" type="curve" smooth="yes"/>
      <point x="517" y="-12"/>
      <point x="591" y="91"/>
      <point x="591" y="168" type="curve" smooth="yes"/>
      <point x="591" y="660" type="line" smooth="yes"/>
      <point x="503" y="660" type="line" smooth="yes"/>
      <point x="503" y="168" type="line" smooth="yes"/>
      <point x="503" y="68"/>
      <point x="459" y="20"/>
      <point x="396" y="20" type="curve" smooth="yes"/>
      <point x="329" y="20"/>
      <point x="271" y="74"/>
      <point x="271" y="126" type="curve" smooth="yes"/>
      <point x="271" y="162"/>
      <point x="292" y="158"/>
      <point x="293" y="191" type="curve" smooth="yes"/>
      <point x="292" y="212"/>
      <point x="263" y="228"/>
      <point x="230" y="228" type="curve" smooth="yes"/>
      <point x="192" y="228"/>
      <point x="168" y="192"/>
    </contour>
  </outline>
</glyph>
<glyph name="O1" format="1">
  <advance width="800"/>
  <outline>
    <contour>
      <point x="379" y="-11" type="curve" smooth="yes"/>
      <point x="623" y="-11"/>
      <point x="749" y="172"/>
      <point x="749" y="348" type="curve" smooth="yes"/>
      <point x="749" y="512"/>
      <point x="640" y="670"/>
      <point x="421" y="670" type="curve" smooth="yes"/>
      <point x="176" y="670"/>
      <point x="51" y="487"/>
      <point x="51" y="310" type="curve" smooth="yes"/>
      <point x="51" y="147"/>
      <point x="159" y="-11"/>
    </contour>
    <contour>
      <point x="383" y="634" type="curve" smooth="yes"/>
      <point x="559" y="634"/>
      <point x="648" y="465"/>
      <point x="648" y="306" type="curve" smooth="yes"/>
      <point x="648" y="162"/>
      <point x="576" y="25"/>
      <point x="429" y="25" type="curve" smooth="yes"/>
      <point x="243" y="25"/>
      <point x="149" y="192"/>
      <point x="149" y="352" type="curve" smooth="yes"/>
      <point x="149" y="496"/>
      <point x="227" y="634"/>
    </contour>
  </outline>
</glyph>
<glyph name="S1" format="1">
  <advance width="800"/>
  <outline>
    <contour>
      <point x="379" y="672" type="move"/>
      <point x="227" y="672"/>
      <point x="104" y="588"/>
      <point x="104" y="473" type="curve" smooth="yes"/>
      <point x="104" y="260"/>
      <point x="611" y="336"/>
      <point x="613" y="151" type="curve" smooth="yes"/>
      <point x="614" y="68"/>
      <point x="530" y="20"/>
      <point x="428" y="20" type="curve" smooth="yes"/>
      <point x="316" y="20"/>
      <point x="183" y="79"/>
      <point x="120" y="213" type="curve"/>
      <point x="83" y="213" type="line"/>
      <point x="83" y="2" type="line"/>
      <point x="116" y="2" type="line"/>
      <point x="149" y="60" type="line"/>
      <point x="253" y="8"/>
      <point x="347" y="-12"/>
      <point x="427" y="-12" type="curve" smooth="yes"/>
      <point x="607" y="-12"/>
      <point x="717" y="90"/>
      <point x="717" y="185" type="curve" smooth="yes"/>
      <point x="717" y="417"/>
      <point x="212" y="328"/>
      <point x="208" y="503" type="curve" smooth="yes"/>
      <point x="205" y="583"/>
      <point x="289" y="629"/>
      <point x="387" y="629" type="curve" smooth="yes"/>
      <point x="495" y="629"/>
      <point x="618" y="574"/>
      <point x="662" y="449" type="curve"/>
      <point x="691" y="449" type="line"/>
      <point x="691" y="648" type="line"/>
      <point x="665" y="648" type="line"/>
      <point x="622" y="600" type="line"/>
      <point x="546" y="649"/>
      <point x="463" y="672"/>
      <point x="379" y="672" type="curve"/>
    </contour>
  </outline>
</glyph>
<glyph name="T2" format="1">
  <advance width="800"/>
  <outline>
    <contour>
      <point x="443" y="700" type="line" smooth="yes"/>
      <point x="355" y="700" type="line" smooth="yes"/>
      <point x="355" y="0" type="line" smooth="yes"/>
      <point x="443" y="0" type="line" smooth="yes"/>
    </contour>
    <contour>
      <point x="286" y="18" type="line"/>
      <point x="329" y="26"/>
      <point x="355" y="47"/>
      <point x="355" y="76" type="curve"/>
      <point x="355" y="0" type="line" smooth="yes"/>
      <point x="286" y="0" type="line" smooth="yes"/>
    </contour>
    <contour>
      <point x="512" y="18" type="line"/>
      <point x="470" y="26"/>
      <point x="443" y="47"/>
      <point x="443" y="76" type="curve"/>
      <point x="443" y="0" type="line" smooth="yes"/>
      <point x="512" y="0" type="line" smooth="yes"/>
    </contour>
    <contour>
      <point x="83" y="700" type="line" smooth="yes"/>
      <point x="43" y="530" type="line" smooth="yes"/>
      <point x="72" y="530" type="line"/>
      <point x="136" y="662"/>
      <point x="192" y="666"/>
      <point x="265" y="666" type="curve"/>
      <point x="265" y="700" type="line" smooth="yes"/>
    </contour>
    <contour>
      <point x="716" y="700" type="line" smooth="yes"/>
      <point x="533" y="700" type="line" smooth="yes"/>
      <point x="533" y="666" type="line"/>
      <point x="606" y="666"/>
      <point x="662" y="662"/>
      <point x="727" y="530" type="curve"/>
      <point x="756" y="530" type="line" smooth="yes"/>
    </contour>
    <contour>
      <point x="233" y="666" type="line" smooth="yes"/>
      <point x="565" y="666" type="line" smooth="yes"/>
      <point x="565" y="700" type="line" smooth="yes"/>
      <point x="233" y="700" type="line" smooth="yes"/>
    </contour>
  </outline>
</glyph>
<glyph name="V1" format="1">
  <advance width="800"/>
  <outline>
    <contour>
      <point x="561" y="654" type="line"/>
      <point x="606" y="648"/>
      <point x="659" y="638"/>
      <point x="641" y="597" type="curve" smooth="yes"/>
      <point x="376" y="0" type="line" smooth="yes"/>
      <point x="409" y="0" type="line" smooth="yes"/>
      <point x="675" y="597" type="line" smooth="yes"/>
      <point x="693" y="638"/>
      <point x="730" y="648"/>
      <point x="769" y="654" type="curve"/>
      <point x="769" y="672" type="line" smooth="yes"/>
      <point x="561" y="672" type="line" smooth="yes"/>
    </contour>
    <contour>
      <point x="429" y="92" type="line" smooth="yes"/>
      <point x="203" y="597" type="line" smooth="yes"/>
      <point x="188" y="630"/>
      <point x="221" y="646"/>
      <point x="263" y="654" type="curve"/>
      <point x="263" y="672" type="line" smooth="yes"/>
      <point x="31" y="672" type="line" smooth="yes"/>
      <point x="31" y="654" type="line"/>
      <point x="81" y="644"/>
      <point x="98" y="627"/>
      <point x="111" y="597" type="curve" smooth="yes"/>
      <point x="376" y="0" type="line" smooth="yes"/>
    </contour>
  </outline>
</glyph>
<glyph name="a2" format="1">
  <advance width="800"/>
  <outline>
    <contour>
      <point x="345" y="476" type="curve" smooth="yes"/>
      <point x="452" y="476"/>
      <point x="529" y="425"/>
      <point x="529" y="315" type="curve" smooth="yes"/>
      <point x="529" y="60" type="line" smooth="yes"/>
      <point x="529" y="11"/>
      <point x="560" y="-12"/>
      <point x="619" y="-12" type="curve" smooth="yes"/>
      <point x="670" y="-12"/>
      <point x="697" y="1"/>
      <point x="720" y="26" type="curve"/>
      <point x="711" y="41" type="line"/>
      <point x="693" y="30"/>
      <point x="676" y="28"/>
      <point x="660" y="28" type="curve" smooth="yes"/>
      <point x="639" y="28"/>
      <point x="617" y="44"/>
      <point x="617" y="85" type="curve" smooth="yes"/>
      <point x="617" y="315" type="line" smooth="yes"/>
      <point x="617" y="461"/>
      <point x="502" y="512"/>
      <point x="381" y="512" type="curve" smooth="yes"/>
      <point x="274" y="512"/>
      <point x="120" y="434"/>
      <point x="120" y="377" type="curve" smooth="yes"/>
      <point x="120" y="353"/>
      <point x="135" y="330"/>
      <point x="166" y="330" type="curve" smooth="yes"/>
      <point x="200" y="330"/>
      <point x="249" y="350"/>
      <point x="249" y="371" type="curve" smooth="yes"/>
      <point x="249" y="404"/>
      <point x="214" y="409"/>
      <point x="239" y="434" type="curve" smooth="yes"/>
      <point x="264" y="459"/>
      <point x="309" y="476"/>
    </contour>
    <contour>
      <point x="544" y="114" type="line"/>
      <point x="544" y="114" type="line"/>
      <point x="484" y="54"/>
      <point x="396" y="25"/>
      <point x="320" y="25" type="curve" smooth="yes"/>
      <point x="223" y="25"/>
      <point x="169" y="73"/>
      <point x="169" y="122" type="curve" smooth="yes"/>
      <point x="169" y="177"/>
      <point x="235" y="235"/>
      <point x="383" y="235" type="curve" smooth="yes"/>
      <point x="449" y="235"/>
      <point x="512" y="220"/>
      <point x="543" y="189" type="curve" smooth="yes"/>
      <point x="544" y="188" type="line"/>
      <point x="544" y="247" type="line"/>
      <point x="510" y="264"/>
      <point x="467" y="272"/>
      <point x="421" y="272" type="curve" smooth="yes"/>
      <point x="210" y="272"/>
      <point x="84" y="166"/>
      <point x="84" y="84" type="curve" smooth="yes"/>
      <point x="84" y="31"/>
      <point x="135" y="-12"/>
      <point x="248" y="-12" type="curve" smooth="yes"/>
      <point x="349" y="-12"/>
      <point x="473" y="23"/>
      <point x="544" y="71" type="curve"/>
    </contour>
  </outline>
</glyph>
<glyph name="ampersand1" format="1">
  <advance width="800"/>
  <outline>
    <contour>
      <point x="668" y="319" type="curve" smooth="yes"/>
      <point x="668" y="113"/>
      <point x="495" y="-12"/>
      <point x="338" y="-12" type="curve" smooth="yes"/>
      <point x="172" y="-12"/>
      <point x="84" y="87"/>
      <point x="84" y="189" type="curve" smooth="yes"/>
      <point x="84" y="273"/>
      <point x="145" y="360"/>
      <point x="270" y="392" type="curve"/>
      <point x="285" y="372" type="line"/>
      <point x="206" y="342"/>
      <point x="171" y="279"/>
      <point x="171" y="215" type="curve" smooth="yes"/>
      <point x="171" y="120"/>
      <point x="247" y="22"/>
      <point x="368" y="22" type="curve" smooth="yes"/>
      <point x="465" y="22"/>
      <point x="590" y="132"/>
      <point x="590" y="319" type="curve" smooth="yes"/>
      <point x="590" y="348"/>
      <point x="561" y="369"/>
      <point x="518" y="377" type="curve"/>
      <point x="518" y="395" type="line"/>
      <point x="740" y="395" type="line"/>
      <point x="740" y="377" type="line"/>
      <point x="697" y="369"/>
      <point x="668" y="348"/>
    </contour>
    <contour>
      <point x="263" y="521" type="curve" smooth="yes"/>
      <point x="263" y="319"/>
      <point x="694" y="179"/>
      <point x="695" y="0" type="curve"/>
      <point x="605" y="0" type="line"/>
      <point x="572" y="159"/>
      <point x="174" y="295"/>
      <point x="174" y="488" type="curve" smooth="yes"/>
      <point x="174" y="611"/>
      <point x="287" y="672"/>
      <point x="393" y="672" type="curve" smooth="yes"/>
      <point x="483" y="672"/>
      <point x="568" y="627"/>
      <point x="568" y="537" type="curve" smooth="yes"/>
      <point x="568" y="513"/>
      <point x="551" y="486"/>
      <point x="520" y="486" type="curve" smooth="yes"/>
      <point x="486" y="486"/>
      <point x="437" y="503"/>
      <point x="437" y="524" type="curve" smooth="yes"/>
      <point x="437" y="557"/>
      <point x="463" y="570"/>
      <point x="444" y="589" type="curve" smooth="yes"/>
      <point x="419" y="615"/>
      <point x="385" y="630"/>
      <point x="358" y="630" type="curve" smooth="yes"/>
      <point x="307" y="630"/>
      <point x="263" y="590"/>
    </contour>
  </outline>
</glyph>
<glyph name="arrow-right" format="1">
  <advance width="1600"/>
  <outline>
    <contour>
      <point x="1191" y="373" type="line" smooth="yes"/>
      <point x="163" y="359" type="line" smooth="yes"/>
      <point x="163" y="431" type="line" smooth="yes"/>
      <point x="1191" y="445" type="line" smooth="yes"/>
    </contour>
    <contour>
      <point x="1191" y="173" type="line" smooth="yes"/>
      <point x="163" y="159" type="line" smooth="yes"/>
      <point x="163" y="231" type="line" smooth="yes"/>
      <point x="1191" y="245" type="line" smooth="yes"/>
    </contour>
    <contour>
      <point x="908" y="49" type="line" smooth="yes"/>
      <point x="1346" y="308" type="line"/>
      <point x="908" y="567" type="line" smooth="yes"/>
      <point x="908" y="615" type="line" smooth="yes"/>
      <point x="1434" y="352" type="line" smooth="yes"/>
      <point x="1434" y="264" type="line" smooth="yes"/>
      <point x="908" y="1" type="line" smooth="yes"/>
    </contour>
  </outline>
</glyph>
<glyph name="c1" format="1">
  <advance width="800"/>
  <outline>
    <contour>
      <point x="438" y="512" type="curve" smooth="yes"/>
      <point x="255" y="512"/>
      <point x="95" y="414"/>
      <point x="95" y="233" type="curve" smooth="yes"/>
      <point x="95" y="100"/>
      <point x="232" y="-12"/>
      <point x="365" y="-12" type="curve" smooth="yes"/>
      <point x="469" y="-12"/>
      <point x="595" y="24"/>
      <point x="664" y="114" type="curve" smooth="yes"/>
      <point x="677" y="130"/>
      <point x="598" y="138"/>
      <point x="579" y="115" type="curve" smooth="yes"/>
      <point x="539" y="70"/>
      <point x="485" y="20"/>
      <point x="428" y="20" type="curve" smooth="yes"/>
      <point x="286" y="20"/>
      <point x="195" y="118"/>
      <point x="195" y="264" type="curve" smooth="yes"/>
      <point x="195" y="372"/>
      <point x="276" y="479"/>
      <point x="375" y="479" type="curve" smooth="yes"/>
      <point x="434" y="479"/>
      <point x="506" y="464"/>
      <point x="540" y="430" type="curve" smooth="yes"/>
      <point x="565" y="405"/>
      <point x="531" y="400"/>
      <point x="525" y="367" type="curve" smooth="yes"/>
      <point x="523" y="355"/>
      <point x="574" y="330"/>
      <point x="608" y="324" type="curve" smooth="yes"/>
      <point x="634" y="319"/>
      <point x="652" y="351"/>
      <point x="656" y="376" type="curve" smooth="yes"/>
      <point x="666" y="433"/>
      <point x="559" y="512"/>
    </contour>
  </outline>
</glyph>
<glyph name="c2" format="1">
  <advance width="800"/>
  <outline>
    <contour>
      <point x="215" y="259" type="curve" smooth="yes"/>
      <point x="215" y="423"/>
      <point x="323" y="481"/>
      <point x="421" y="481" type="curve" smooth="yes"/>
      <point x="477" y="481"/>
      <point x="529" y="462"/>
      <point x="557" y="434" type="curve" smooth="yes"/>
      <point x="582" y="409"/>
      <point x="547" y="404"/>
      <point x="547" y="371" type="curve" smooth="yes"/>
      <point x="547" y="350"/>
      <point x="596" y="330"/>
      <point x="630" y="330" type="curve" smooth="yes"/>
      <point x="661" y="330"/>
      <point x="676" y="353"/>
      <point x="676" y="377" type="curve" smooth="yes"/>
      <point x="676" y="463"/>
      <point x="569" y="513"/>
      <point x="448" y="513" type="curve" smooth="yes"/>
      <point x="293" y="513"/>
      <point x="115" y="431"/>
      <point x="115" y="239" type="curve" smooth="yes"/>
      <point x="115" y="72"/>
      <point x="251" y="-12"/>
      <point x="398" y="-12" type="curve" smooth="yes"/>
      <point x="502" y="-12"/>
      <point x="611" y="30"/>
      <point x="682" y="113" type="curve" smooth="yes"/>
      <point x="699" y="133"/>
      <point x="620" y="147"/>
      <point x="595" y="116" type="curve" smooth="yes"/>
      <point x="541" y="49"/>
      <point x="479" y="20"/>
      <point x="421" y="20" type="curve" smooth="yes"/>
      <point x="311" y="20"/>
      <point x="215" y="125"/>
    </contour>
  </outline>
</glyph>
<glyph name="eight1" format="1">
  <advance width="800"/>
  <outline>
    <contour>
      <point x="343" y="343" type="line"/>
      <point x="193" y="310"/>
      <point x="121" y="228"/>
      <point x="121" y="151" type="curve" smooth="yes"/>
      <point x="121" y="67"/>
      <point x="206" y="-12"/>
      <point x="365" y="-12" type="curve" smooth="yes"/>
      <point x="516" y="-12"/>
      <point x="680" y="63"/>
      <point x="680" y="188" type="curve" smooth="yes"/>
      <point x="680" y="292"/>
      <point x="534" y="323"/>
      <point x="411" y="367" type="curve" smooth="yes"/>
      <point x="323" y="398"/>
      <point x="248" y="436"/>
      <point x="248" y="513" type="curve" smooth="yes"/>
      <point x="248" y="599"/>
      <point x="307" y="636"/>
      <point x="373" y="636" type="curve" smooth="yes"/>
      <point x="485" y="636"/>
      <point x="553" y="554"/>
      <point x="553" y="478" type="curve" smooth="yes"/>
      <point x="553" y="417"/>
      <point x="510" y="361"/>
      <point x="410" y="352" type="curve"/>
      <point x="446" y="334" type="line"/>
      <point x="578" y="351"/>
      <point x="647" y="434"/>
      <point x="647" y="514" type="curve" smooth="yes"/>
      <point x="647" y="594"/>
      <point x="577" y="672"/>
      <point x="432" y="672" type="curve" smooth="yes"/>
      <point x="300" y="672"/>
      <point x="154" y="601"/>
      <point x="154" y="479" type="curve" smooth="yes"/>
      <point x="154" y="384"/>
      <point x="270" y="347"/>
      <point x="381" y="309" type="curve" smooth="yes"/>
      <point x="485" y="274"/>
      <point x="586" y="238"/>
      <point x="586" y="154" type="curve" smooth="yes"/>
      <point x="586" y="66"/>
      <point x="513" y="26"/>
      <point x="431" y="26" type="curve" smooth="yes"/>
      <point x="305" y="26"/>
      <point x="214" y="110"/>
      <point x="214" y="189" type="curve" smooth="yes"/>
      <point x="214" y="249"/>
      <point x="265" y="306"/>
      <point x="391" y="322" type="curve"/>
    </contour>
  </outline>
</glyph>
<glyph name="eight2" format="1">
  <advance width="800"/>
  <outline>
    <contour>
      <point x="134" y="154" type="curve" smooth="yes"/>
      <point x="138" y="39"/>
      <point x="249" y="-12"/>
      <point x="370" y="-12" type="curve" smooth="yes"/>
      <point x="512" y="-12"/>
      <point x="665" y="60"/>
      <point x="665" y="185" type="curve" smooth="yes"/>
      <point x="665" y="286"/>
      <point x="542" y="320"/>
      <point x="432" y="360" type="curve" smooth="yes"/>
      <point x="341" y="393"/>
      <point x="259" y="431"/>
      <point x="259" y="511" type="curve" smooth="yes"/>
      <point x="259" y="598"/>
      <point x="310" y="634"/>
      <point x="369" y="634" type="curve" smooth="yes"/>
      <point x="448" y="634"/>
      <point x="540" y="569"/>
      <point x="540" y="477" type="curve" smooth="yes"/>
      <point x="540" y="425"/>
      <point x="508" y="381"/>
      <point x="428" y="348" type="curve"/>
      <point x="441" y="330" type="line"/>
      <point x="570" y="365"/>
      <point x="636" y="445"/>
      <point x="636" y="516" type="curve" smooth="yes"/>
      <point x="636" y="624"/>
      <point x="540" y="672"/>
      <point x="435" y="672" type="curve" smooth="yes"/>
      <point x="307" y="672"/>
      <point x="165" y="601"/>
      <point x="165" y="478" type="curve" smooth="yes"/>
      <point x="165" y="382"/>
      <point x="282" y="345"/>
      <point x="391" y="306" type="curve" smooth="yes"/>
      <point x="484" y="272"/>
      <point x="571" y="235"/>
      <point x="571" y="158" type="curve" smooth="yes"/>
      <point x="571" y="69"/>
      <point x="505" y="31"/>
      <point x="432" y="31" type="curve" smooth="yes"/>
      <point x="336" y="31"/>
      <point x="228" y="94"/>
      <point x="228" y="193" type="curve" smooth="yes"/>
      <point x="228" y="278"/>
      <point x="325" y="317"/>
      <point x="374" y="328" type="curve"/>
      <point x="364" y="349" type="line"/>
      <point x="257" y="327"/>
      <point x="131" y="261"/>
    </contour>
  </outline>
</glyph>
<glyph name="five2" format="1">
  <advance width="800"/>
  <outline>
    <contour>
      <point x="190" y="327" type="line"/>
      <point x="254" y="327" type="line"/>
      <point x="311" y="672" type="line"/>
      <point x="247" y="672" type="line"/>
    </contour>
    <contour>
      <point x="340" y="393" type="curve" smooth="yes"/>
      <point x="294" y="384"/>
      <point x="224" y="353"/>
      <point x="190" y="327" type="curve"/>
      <point x="223" y="310" type="line"/>
      <point x="245" y="326"/>
      <point x="287" y="338"/>
      <point x="337" y="349" type="curve" smooth="yes"/>
      <point x="472" y="379"/>
      <point x="584" y="300"/>
      <point x="584" y="179" type="curve" smooth="yes"/>
      <point x="584" y="93"/>
      <point x="513" y="27"/>
      <point x="413" y="27" type="curve" smooth="yes"/>
      <point x="329" y="27"/>
      <point x="267" y="65"/>
      <point x="243" y="96" type="curve" smooth="yes"/>
      <point x="222" y="123"/>
      <point x="248" y="126"/>
      <point x="248" y="161" type="curve" smooth="yes"/>
      <point x="248" y="190"/>
      <point x="231" y="208"/>
      <point x="190" y="208" type="curve" smooth="yes"/>
      <point x="148" y="208"/>
      <point x="122" y="189"/>
      <point x="122" y="161" type="curve" smooth="yes"/>
      <point x="122" y="64"/>
      <point x="221" y="-12"/>
      <point x="370" y="-12" type="curve" smooth="yes"/>
      <point x="497" y="-12"/>
      <point x="678" y="59"/>
      <point x="678" y="213" type="curve" smooth="yes"/>
      <point x="678" y="385"/>
      <point x="472" y="419"/>
    </contour>
    <contour>
      <point x="540" y="566" type="curve" smooth="yes"/>
      <point x="609" y="566"/>
      <point x="681" y="612"/>
      <point x="742" y="657" type="curve"/>
      <point x="742" y="657"/>
      <point x="664" y="622"/>
      <point x="597" y="622" type="curve" smooth="yes"/>
      <point x="532" y="622"/>
      <point x="522" y="659"/>
      <point x="463" y="659" type="curve" smooth="yes"/>
      <point x="411" y="659"/>
      <point x="342" y="627"/>
      <point x="304" y="604" type="curve"/>
      <point x="304" y="604"/>
      <point x="325" y="613"/>
      <point x="361" y="613" type="curve" smooth="yes"/>
      <point x="454" y="613"/>
      <point x="470" y="566"/>
    </contour>
  </outline>
</glyph>
<glyph name="g1" format="1">
  <advance width="800"/>
  <outline>
    <contour>
      <point x="396" y="512" type="curve" smooth="yes"/>
      <point x="233" y="512"/>
      <point x="134" y="440"/>
      <point x="134" y="332" type="curve" smooth="yes"/>
      <point x="134" y="246"/>
      <point x="219" y="178"/>
      <point x="342" y="178" type="curve" smooth="yes"/>
      <point x="471" y="178"/>
      <point x="604" y="232"/>
      <point x="604" y="362" type="curve" smooth="yes"/>
      <point x="604" y="452"/>
      <point x="511" y="512"/>
    </contour>
    <contour>
      <point x="304" y="214" type="line"/>
      <point x="252" y="205"/>
      <point x="155" y="170"/>
      <point x="155" y="118" type="curve" smooth="yes"/>
      <point x="155" y="39"/>
      <point x="364" y="34"/>
      <point x="439" y="29" type="curve" smooth="yes"/>
      <point x="522" y="24"/>
      <point x="592" y="-6"/>
      <point x="592" y="-71" type="curve" smooth="yes"/>
      <point x="592" y="-160"/>
      <point x="485" y="-184"/>
      <point x="402" y="-184" type="curve" smooth="yes"/>
      <point x="293" y="-184"/>
      <point x="170" y="-148"/>
      <point x="170" y="-42" type="curve" smooth="yes"/>
      <point x="170" y="-2"/>
      <point x="227" y="46"/>
      <point x="330" y="63" type="curve"/>
      <point x="330" y="81" type="line"/>
      <point x="223" y="70"/>
      <point x="82" y="19"/>
      <point x="82" y="-74" type="curve" smooth="yes"/>
      <point x="82" y="-174"/>
      <point x="212" y="-220"/>
      <point x="332" y="-220" type="curve" smooth="yes"/>
      <point x="473" y="-220"/>
      <point x="681" y="-162"/>
      <point x="681" y="-43" type="curve" smooth="yes"/>
      <point x="681" y="42"/>
      <point x="546" y="71"/>
      <point x="441" y="78" type="curve" smooth="yes"/>
      <point x="364" y="83"/>
      <point x="226" y="83"/>
      <point x="226" y="134" type="curve" smooth="yes"/>
      <point x="226" y="160"/>
      <point x="266" y="185"/>
      <point x="304" y="190" type="curve"/>
    </contour>
    <contour>
      <point x="339" y="477" type="curve" smooth="yes"/>
      <point x="431" y="477"/>
      <point x="525" y="424"/>
      <point x="525" y="329" type="curve" smooth="yes"/>
      <point x="525" y="261"/>
      <point x="483" y="214"/>
      <point x="409" y="214" type="curve" smooth="yes"/>
      <point x="317" y="214"/>
      <point x="223" y="267"/>
      <point x="223" y="362" type="curve" smooth="yes"/>
      <point x="223" y="430"/>
      <point x="265" y="477"/>
    </contour>
    <contour>
      <point x="565" y="453" type="line"/>
      <point x="495" y="536"/>
      <point x="545" y="582"/>
      <point x="581" y="582" type="curve" smooth="yes"/>
      <point x="587" y="582"/>
      <point x="595" y="580"/>
      <point x="598" y="577" type="curve" smooth="yes"/>
      <point x="617" y="557"/>
      <point x="591" y="555"/>
      <point x="591" y="526" type="curve" smooth="yes"/>
      <point x="591" y="508"/>
      <point x="633" y="491"/>
      <point x="662" y="491" type="curve" smooth="yes"/>
      <point x="689" y="491"/>
      <point x="702" y="511"/>
      <point x="702" y="531" type="curve" smooth="yes"/>
      <point x="702" y="583"/>
      <point x="643" y="607"/>
      <point x="584" y="607" type="curve" smooth="yes"/>
      <point x="520" y="607"/>
      <point x="449" y="536"/>
      <point x="514" y="457" type="curve"/>
    </contour>
  </outline>
</glyph>
<glyph name="g2" format="1">
  <advance width="800"/>
  <outline>
    <contour>
      <point x="396" y="512" type="curve" smooth="yes"/>
      <point x="233" y="512"/>
      <point x="134" y="440"/>
      <point x="134" y="332" type="curve" smooth="yes"/>
      <point x="134" y="246"/>
      <point x="219" y="178"/>
      <point x="342" y="178" type="curve" smooth="yes"/>
      <point x="471" y="178"/>
      <point x="604" y="232"/>
      <point x="604" y="362" type="curve" smooth="yes"/>
      <point x="604" y="440"/>
      <point x="495" y="512"/>
    </contour>
    <contour>
      <point x="339" y="477" type="curve" smooth="yes"/>
      <point x="431" y="477"/>
      <point x="524" y="420"/>
      <point x="524" y="325" type="curve" smooth="yes"/>
      <point x="524" y="254"/>
      <point x="472" y="214"/>
      <point x="407" y="214" type="curve" smooth="yes"/>
      <point x="315" y="214"/>
      <point x="212" y="263"/>
      <point x="212" y="358" type="curve" smooth="yes"/>
      <point x="212" y="439"/>
      <point x="260" y="477"/>
    </contour>
    <contour>
      <point x="560" y="447" type="line"/>
      <point x="488" y="527"/>
      <point x="543" y="582"/>
      <point x="579" y="582" type="curve" smooth="yes"/>
      <point x="585" y="582"/>
      <point x="593" y="580"/>
      <point x="596" y="577" type="curve" smooth="yes"/>
      <point x="615" y="557"/>
      <point x="589" y="555"/>
      <point x="589" y="526" type="curve" smooth="yes"/>
      <point x="589" y="508"/>
      <point x="631" y="491"/>
      <point x="660" y="491" type="curve" smooth="yes"/>
      <point x="687" y="491"/>
      <point x="700" y="511"/>
      <point x="700" y="531" type="curve" smooth="yes"/>
      <point x="700" y="583"/>
      <point x="641" y="607"/>
      <point x="582" y="607" type="curve" smooth="yes"/>
      <point x="518" y="607"/>
      <point x="441" y="540"/>
      <point x="512" y="457" type="curve"/>
    </contour>
    <contour>
      <point x="305" y="213" type="line"/>
      <point x="253" y="204"/>
      <point x="156" y="162"/>
      <point x="156" y="110" type="curve" smooth="yes"/>
      <point x="156" y="31"/>
      <point x="296" y="35"/>
      <point x="419" y="21" type="curve" smooth="yes"/>
      <point x="516" y="10"/>
      <point x="602" y="-12"/>
      <point x="602" y="-94" type="curve" smooth="yes"/>
      <point x="602" y="-172"/>
      <point x="500" y="-213"/>
      <point x="395" y="-213" type="curve" smooth="yes"/>
      <point x="249" y="-213"/>
      <point x="166" y="-143"/>
      <point x="166" y="-73" type="curve" smooth="yes"/>
      <point x="166" y="-18"/>
      <point x="218" y="36"/>
      <point x="331" y="55" type="curve"/>
      <point x="331" y="73" type="line"/>
      <point x="168" y="56"/>
      <point x="83" y="-25"/>
      <point x="83" y="-101" type="curve" smooth="yes"/>
      <point x="83" y="-177"/>
      <point x="167" y="-249"/>
      <point x="344" y="-249" type="curve" smooth="yes"/>
      <point x="505" y="-249"/>
      <point x="682" y="-182"/>
      <point x="682" y="-66" type="curve" smooth="yes"/>
      <point x="682" y="33"/>
      <point x="546" y="52"/>
      <point x="422" y="65" type="curve" smooth="yes"/>
      <point x="320" y="76"/>
      <point x="227" y="83"/>
      <point x="227" y="126" type="curve" smooth="yes"/>
      <point x="227" y="152"/>
      <point x="267" y="184"/>
      <point x="305" y="189" type="curve"/>
    </contour>
  </outline>
</glyph>
<glyph name="greater4" format="1">
  <advance width="800"/>
  <outline>
    <contour>
      <point x="125" y="0" type="line" smooth="yes"/>
      <point x="662" y="259" type="line" smooth="yes"/>
      <point x="662" y="330" type="line" smooth="yes"/>
      <point x="125" y="606" type="line" smooth="yes"/>
      <point x="125" y="515" type="line" smooth="yes"/>
      <point x="582" y="271" type="line" smooth="yes"/>
      <point x="125" y="44" type="line" smooth="yes"/>
    </contour>
  </outline>
</glyph>
<glyph name="greater5" format="1">
  <advance width="800"/>
  <outline>
    <contour>
      <point x="657" y="293" type="curve" smooth="yes"/>
      <point x="657" y="315"/>
      <point x="638" y="333"/>
      <point x="623" y="341" type="curve" smooth="yes"/>
      <point x="139" y="589" type="line" smooth="yes"/>
      <point x="126" y="596"/>
      <point x="110" y="586"/>
      <point x="110" y="571" type="curve" smooth="yes"/>
      <point x="110" y="542"/>
      <point x="126" y="514"/>
      <point x="153" y="500" type="curve" smooth="yes"/>
      <point x="567" y="279" type="line"/>
      <point x="130" y="62" type="line" smooth="yes"/>
      <point x="118" y="56"/>
      <point x="110" y="43"/>
      <point x="110" y="30" type="curve" smooth="yes"/>
      <point x="110" y="15"/>
      <point x="125" y="5"/>
      <point x="139" y="12" type="curve" smooth="yes"/>
      <point x="622" y="245" type="line" smooth="yes"/>
      <point x="637" y="252"/>
      <point x="657" y="271"/>
    </contour>
  </outline>
</glyph>
<glyph name="i11" format="1">
  <advance width="800"/>
  <outline>
    <contour>
      <point x="674" y="78" type="line"/>
      <point x="630" y="73"/>
      <point x="517" y="48"/>
      <point x="444" y="48" type="curve" smooth="yes"/>
      <point x="356" y="48" type="line" smooth="yes"/>
      <point x="283" y="48"/>
      <point x="170" y="73"/>
      <point x="126" y="78" type="curve"/>
      <point x="126" y="0" type="line" smooth="yes"/>
      <point x="674" y="0" type="line" smooth="yes"/>
    </contour>
    <contour>
      <point x="476" y="688" type="curve" smooth="yes"/>
      <point x="476" y="655"/>
      <point x="449" y="628"/>
      <point x="416" y="628" type="curve" smooth="yes"/>
      <point x="383" y="628"/>
      <point x="356" y="655"/>
      <point x="356" y="688" type="curve" smooth="yes"/>
      <point x="356" y="721"/>
      <point x="383" y="748"/>
      <point x="416" y="748" type="curve" smooth="yes"/>
      <point x="449" y="748"/>
      <point x="476" y="721"/>
    </contour>
    <contour>
      <point x="444" y="0" type="line" smooth="yes"/>
      <point x="444" y="511" type="line"/>
      <point x="391" y="511" type="line"/>
      <point x="364" y="444"/>
      <point x="298" y="353"/>
      <point x="254" y="353" type="curve" smooth="yes"/>
      <point x="227" y="353"/>
      <point x="221" y="390"/>
      <point x="176" y="390" type="curve" smooth="yes"/>
      <point x="153" y="390"/>
      <point x="135" y="376"/>
      <point x="135" y="349" type="curve" smooth="yes"/>
      <point x="135" y="311"/>
      <point x="166" y="291"/>
      <point x="206" y="291" type="curve" smooth="yes"/>
      <point x="253" y="291"/>
      <point x="322" y="327"/>
      <point x="356" y="385" type="curve"/>
      <point x="356" y="0" type="line" smooth="yes"/>
    </contour>
  </outline>
</glyph>
<glyph name="i2" format="1">
  <advance width="800"/>
  <outline>
    <contour>
      <point x="460" y="688" type="curve" smooth="yes"/>
      <point x="460" y="655"/>
      <point x="433" y="628"/>
      <point x="400" y="628" type="curve" smooth="yes"/>
      <point x="367" y="628"/>
      <point x="340" y="655"/>
      <point x="340" y="688" type="curve" smooth="yes"/>
      <point x="340" y="721"/>
      <point x="367" y="748"/>
      <point x="400" y="748" type="curve" smooth="yes"/>
      <point x="433" y="748"/>
      <point x="460" y="721"/>
    </contour>
    <contour>
      <point x="714" y="136" type="line"/>
      <point x="675" y="106"/>
      <point x="577" y="37"/>
      <point x="516" y="37" type="curve" smooth="yes"/>
      <point x="488" y="37"/>
      <point x="435" y="62"/>
      <point x="435" y="97" type="curve" smooth="yes"/>
      <point x="435" y="172"/>
      <point x="448" y="350"/>
      <point x="448" y="433" type="curve" smooth="yes"/>
      <point x="448" y="461"/>
      <point x="437" y="512"/>
      <point x="375" y="512" type="curve" smooth="yes"/>
      <point x="268" y="512"/>
      <point x="117" y="398"/>
      <point x="77" y="367" type="curve"/>
      <point x="85" y="346" type="line"/>
      <point x="127" y="377"/>
      <point x="259" y="466"/>
      <point x="301" y="466" type="curve" smooth="yes"/>
      <point x="337" y="466"/>
      <point x="354" y="447"/>
      <point x="354" y="382" type="curve" smooth="yes"/>
      <point x="354" y="312"/>
      <point x="345" y="118"/>
      <point x="345" y="79" type="curve" smooth="yes"/>
      <point x="345" y="20"/>
      <point x="391" y="-12"/>
      <point x="442" y="-12" type="curve" smooth="yes"/>
      <point x="559" y="-12"/>
      <point x="686" y="85"/>
      <point x="723" y="116" type="curve"/>
    </contour>
  </outline>
</glyph>
<glyph name="i3" format="1">
  <advance width="800"/>
  <outline>
    <contour>
      <point x="453" y="99" type="curve" smooth="yes"/>
      <point x="453.0" y="511.0" type="line"/>
      <point x="411.0" y="511.0" type="line"/>
      <point x="384.0" y="444.0"/>
      <point x="310" y="353"/>
      <point x="266" y="353" type="curve" smooth="yes"/>
      <point x="239" y="353"/>
      <point x="229" y="390"/>
      <point x="184" y="390" type="curve" smooth="yes"/>
      <point x="161" y="390"/>
      <point x="143" y="376"/>
      <point x="143" y="349" type="curve" smooth="yes"/>
      <point x="143" y="311"/>
      <point x="174" y="291"/>
      <point x="214" y="291" type="curve" smooth="yes"/>
      <point x="261" y="291"/>
      <point x="323" y="313"/>
      <point x="365" y="385" type="curve"/>
      <point x="365" y="99" type="line" smooth="yes"/>
      <point x="365" y="25"/>
      <point x="405" y="-12"/>
      <point x="482" y="-12" type="curve" smooth="yes"/>
      <point x="590" y="-12"/>
      <point x="660" y="51"/>
      <point x="693" y="85" type="curve"/>
      <point x="678" y="115" type="line"/>
      <point x="648" y="85"/>
      <point x="569" y="37"/>
      <point x="530" y="36" type="curve" smooth="yes"/>
      <point x="491" y="35"/>
      <point x="453" y="58"/>
    </contour>
    <contour>
      <point x="484" y="688" type="curve" smooth="yes"/>
      <point x="484" y="655"/>
      <point x="457" y="628"/>
      <point x="424" y="628" type="curve" smooth="yes"/>
      <point x="391" y="628"/>
      <point x="364" y="655"/>
      <point x="364" y="688" type="curve" smooth="yes"/>
      <point x="364" y="721"/>
      <point x="391" y="748"/>
      <point x="424" y="748" type="curve" smooth="yes"/>
      <point x="457" y="748"/>
      <point x="484" y="721"/>
    </contour>
  </outline>
</glyph>
<glyph name="i4" format="1">
  <advance width="800"/>
  <outline>
    <contour>
      <point x="460" y="688" type="curve" smooth="yes"/>
      <point x="460" y="655"/>
      <point x="433" y="628"/>
      <point x="400" y="628" type="curve" smooth="yes"/>
      <point x="367" y="628"/>
      <point x="340" y="655"/>
      <point x="340" y="688" type="curve" smooth="yes"/>
      <point x="340" y="721"/>
      <point x="367" y="748"/>
      <point x="400" y="748" type="curve" smooth="yes"/>
      <point x="433" y="748"/>
      <point x="460" y="721"/>
    </contour>
    <contour>
      <point x="359" y="458" type="curve" smooth="yes"/>
      <point x="359" y="100" type="line" smooth="yes"/>
      <point x="359" y="26"/>
      <point x="399" y="-12"/>
      <point x="476" y="-12" type="curve" smooth="yes"/>
      <point x="566" y="-12"/>
      <point x="632" y="31"/>
      <point x="667" y="65" type="curve"/>
      <point x="656" y="85" type="line"/>
      <point x="622" y="58"/>
      <point x="563" y="37"/>
      <point x="524" y="36" type="curve" smooth="yes"/>
      <point x="485" y="35"/>
      <point x="447" y="59"/>
      <point x="447" y="100" type="curve" smooth="yes"/>
      <point x="447" y="472" type="line" smooth="yes"/>
      <point x="447" y="493"/>
      <point x="428" y="512"/>
      <point x="407" y="512" type="curve" smooth="yes"/>
      <point x="370" y="512" type="line" smooth="yes"/>
      <point x="294" y="512"/>
      <point x="115" y="467"/>
      <point x="115" y="394" type="curve" smooth="yes"/>
      <point x="115" y="369"/>
      <point x="129" y="353"/>
      <point x="156" y="353" type="curve" smooth="yes"/>
      <point x="196" y="353"/>
      <point x="236" y="364"/>
      <point x="236" y="380" type="curve" smooth="yes"/>
      <point x="236" y="413"/>
      <point x="194" y="429"/>
      <point x="212" y="447" type="curve" smooth="yes"/>
      <point x="234" y="469"/>
      <point x="270" y="484"/>
      <point x="333" y="484" type="curve" smooth="yes"/>
      <point x="347" y="484"/>
      <point x="359" y="476"/>
    </contour>
  </outline>
</glyph>
<glyph name="i5" format="1">
  <advance width="800"/>
  <outline>
    <contour>
      <point x="460" y="688" type="curve" smooth="yes"/>
      <point x="460" y="655"/>
      <point x="433" y="628"/>
      <point x="400" y="628" type="curve" smooth="yes"/>
      <point x="367" y="628"/>
      <point x="340" y="655"/>
      <point x="340" y="688" type="curve" smooth="yes"/>
      <point x="340" y="721"/>
      <point x="367" y="748"/>
      <point x="400" y="748" type="curve" smooth="yes"/>
      <point x="433" y="748"/>
      <point x="460" y="721"/>
    </contour>
    <contour>
      <point x="447" y="492" type="line" smooth="yes"/>
      <point x="447" y="503"/>
      <point x="438" y="512"/>
      <point x="427" y="512" type="curve" smooth="yes"/>
      <point x="370" y="512" type="line" smooth="yes"/>
      <point x="294" y="512"/>
      <point x="115" y="467"/>
      <point x="115" y="394" type="curve" smooth="yes"/>
      <point x="115" y="369"/>
      <point x="129" y="353"/>
      <point x="156" y="353" type="curve" smooth="yes"/>
      <point x="196" y="353"/>
      <point x="236" y="364"/>
      <point x="236" y="380" type="curve" smooth="yes"/>
      <point x="236" y="413"/>
      <point x="194" y="429"/>
      <point x="212" y="447" type="curve" smooth="yes"/>
      <point x="234" y="469"/>
      <point x="270" y="484"/>
      <point x="333" y="484" type="curve" smooth="yes"/>
      <point x="347" y="484"/>
      <point x="359" y="474"/>
      <point x="359" y="458" type="curve" smooth="yes"/>
      <point x="359" y="9" type="line" smooth="yes"/>
      <point x="359" y="-2"/>
      <point x="368" y="-11"/>
      <point x="379" y="-11" type="curve" smooth="yes"/>
      <point x="436" y="-11" type="line" smooth="yes"/>
      <point x="512" y="-11"/>
      <point x="691" y="34"/>
      <point x="691" y="107" type="curve" smooth="yes"/>
      <point x="691" y="132"/>
      <point x="677" y="148"/>
      <point x="650" y="148" type="curve" smooth="yes"/>
      <point x="610" y="148"/>
      <point x="570" y="137"/>
      <point x="570" y="121" type="curve" smooth="yes"/>
      <point x="570" y="88"/>
      <point x="612" y="72"/>
      <point x="594" y="54" type="curve" smooth="yes"/>
      <point x="572" y="32"/>
      <point x="536" y="17"/>
      <point x="473" y="17" type="curve" smooth="yes"/>
      <point x="459" y="17"/>
      <point x="447" y="27"/>
      <point x="447" y="43" type="curve" smooth="yes"/>
    </contour>
  </outline>
</glyph>
<glyph name="i7" format="1">
  <advance width="800"/>
  <outline>
    <contour>
      <point x="458" y="688" type="curve" smooth="yes"/>
      <point x="458" y="655"/>
      <point x="431" y="628"/>
      <point x="398" y="628" type="curve" smooth="yes"/>
      <point x="365" y="628"/>
      <point x="338" y="655"/>
      <point x="338" y="688" type="curve" smooth="yes"/>
      <point x="338" y="721"/>
      <point x="365" y="748"/>
      <point x="398" y="748" type="curve" smooth="yes"/>
      <point x="431" y="748"/>
      <point x="458" y="721"/>
    </contour>
    <contour>
      <point x="445" y="401" type="line" smooth="yes"/>
      <point x="445" y="475"/>
      <point x="437" y="512"/>
      <point x="368" y="512" type="curve" smooth="yes"/>
      <point x="273" y="512"/>
      <point x="210" y="444"/>
      <point x="182" y="409" type="curve"/>
      <point x="202" y="385" type="line"/>
      <point x="230" y="420"/>
      <point x="281" y="464"/>
      <point x="320" y="464" type="curve" smooth="yes"/>
      <point x="357" y="464"/>
      <point x="357" y="442"/>
      <point x="357" y="401" type="curve" smooth="yes"/>
      <point x="357.0" y="99.0" type="line" smooth="yes"/>
      <point x="357" y="25"/>
      <point x="397.0" y="-12.0"/>
      <point x="474.0" y="-12.0" type="curve" smooth="yes"/>
      <point x="582.0" y="-12.0"/>
      <point x="652.0" y="51.0"/>
      <point x="685.0" y="85.0" type="curve"/>
      <point x="670.0" y="115.0" type="line"/>
      <point x="640.0" y="85.0"/>
      <point x="561.0" y="37.0"/>
      <point x="522.0" y="36.0" type="curve" smooth="yes"/>
      <point x="483.0" y="35.0"/>
      <point x="445" y="58"/>
      <point x="445.0" y="99.0" type="curve" smooth="yes"/>
    </contour>
  </outline>
</glyph>
<glyph name="i8" format="1">
  <advance width="800"/>
  <outline>
    <contour>
      <point x="458" y="688" type="curve" smooth="yes"/>
      <point x="458" y="655"/>
      <point x="431" y="628"/>
      <point x="398" y="628" type="curve" smooth="yes"/>
      <point x="365" y="628"/>
      <point x="338" y="655"/>
      <point x="338" y="688" type="curve" smooth="yes"/>
      <point x="338" y="721"/>
      <point x="365" y="748"/>
      <point x="398" y="748" type="curve" smooth="yes"/>
      <point x="431" y="748"/>
      <point x="458" y="721"/>
    </contour>
    <contour>
      <point x="334" y="476" type="curve" smooth="yes"/>
      <point x="348" y="476"/>
      <point x="357" y="472"/>
      <point x="357" y="456" type="curve" smooth="yes"/>
      <point x="357" y="99" type="line" smooth="yes"/>
      <point x="357" y="25"/>
      <point x="397" y="-12"/>
      <point x="474" y="-12" type="curve" smooth="yes"/>
      <point x="582" y="-12"/>
      <point x="652" y="51"/>
      <point x="685" y="85" type="curve"/>
      <point x="670" y="115" type="line"/>
      <point x="640" y="85"/>
      <point x="561" y="37"/>
      <point x="522" y="36" type="curve" smooth="yes"/>
      <point x="483" y="35"/>
      <point x="445" y="58"/>
      <point x="445" y="99" type="curve" smooth="yes"/>
      <point x="445" y="472" type="line" smooth="yes"/>
      <point x="445" y="493"/>
      <point x="426" y="512"/>
      <point x="405" y="512" type="curve" smooth="yes"/>
      <point x="376" y="512" type="line" smooth="yes"/>
      <point x="285" y="512"/>
      <point x="115" y="434"/>
      <point x="115" y="377" type="curve" smooth="yes"/>
      <point x="115" y="353"/>
      <point x="130" y="330"/>
      <point x="161" y="330" type="curve" smooth="yes"/>
      <point x="195" y="330"/>
      <point x="244" y="350"/>
      <point x="244" y="371" type="curve" smooth="yes"/>
      <point x="244" y="404"/>
      <point x="209" y="409"/>
      <point x="234" y="434" type="curve" smooth="yes"/>
      <point x="259" y="459"/>
      <point x="307" y="476"/>
    </contour>
  </outline>
</glyph>
<glyph name="l1" format="1">
  <advance width="800"/>
  <outline>
    <contour>
      <point x="359" y="684" type="curve" smooth="yes"/>
      <point x="359" y="100" type="line" smooth="yes"/>
      <point x="359" y="26"/>
      <point x="399" y="-12"/>
      <point x="476" y="-12" type="curve" smooth="yes"/>
      <point x="584" y="-12"/>
      <point x="652" y="51"/>
      <point x="687" y="85" type="curve"/>
      <point x="676" y="105" type="line"/>
      <point x="642" y="78"/>
      <point x="563" y="37"/>
      <point x="524" y="36" type="curve" smooth="yes"/>
      <point x="485" y="35"/>
      <point x="447" y="59"/>
      <point x="447" y="100" type="curve" smooth="yes"/>
      <point x="447" y="709" type="line" smooth="yes"/>
      <point x="447" y="730"/>
      <point x="428" y="749"/>
      <point x="407" y="749" type="curve" smooth="yes"/>
      <point x="370" y="749" type="line" smooth="yes"/>
      <point x="294" y="749"/>
      <point x="105" y="636"/>
      <point x="105" y="582" type="curve" smooth="yes"/>
      <point x="105" y="557"/>
      <point x="119" y="541"/>
      <point x="146" y="541" type="curve" smooth="yes"/>
      <point x="186" y="541"/>
      <point x="226" y="552"/>
      <point x="226" y="568" type="curve" smooth="yes"/>
      <point x="226" y="601"/>
      <point x="177" y="622"/>
      <point x="196" y="641" type="curve" smooth="yes"/>
      <point x="219" y="664"/>
      <point x="285" y="703"/>
      <point x="336" y="703" type="curve" smooth="yes"/>
      <point x="350" y="703"/>
      <point x="359" y="699"/>
    </contour>
  </outline>
</glyph>
<glyph name="l4" format="1">
  <advance width="800"/>
  <outline>
    <contour>
      <point x="334" y="714" type="curve" smooth="yes"/>
      <point x="348" y="714"/>
      <point x="357" y="710"/>
      <point x="357" y="694" type="curve" smooth="yes"/>
      <point x="357" y="99" type="line" smooth="yes"/>
      <point x="357" y="25"/>
      <point x="397" y="-12"/>
      <point x="474" y="-12" type="curve" smooth="yes"/>
      <point x="582" y="-12"/>
      <point x="652" y="51"/>
      <point x="685" y="85" type="curve"/>
      <point x="670" y="115" type="line"/>
      <point x="640" y="85"/>
      <point x="561" y="37"/>
      <point x="522" y="36" type="curve" smooth="yes"/>
      <point x="483" y="35"/>
      <point x="445" y="58"/>
      <point x="445" y="99" type="curve" smooth="yes"/>
      <point x="445" y="710" type="line" smooth="yes"/>
      <point x="445" y="731"/>
      <point x="426" y="750"/>
      <point x="405" y="750" type="curve" smooth="yes"/>
      <point x="376" y="750" type="line" smooth="yes"/>
      <point x="285" y="750"/>
      <point x="115" y="672"/>
      <point x="115" y="615" type="curve" smooth="yes"/>
      <point x="115" y="591"/>
      <point x="130" y="568"/>
      <point x="161" y="568" type="curve" smooth="yes"/>
      <point x="195" y="568"/>
      <point x="244" y="588"/>
      <point x="244" y="609" type="curve" smooth="yes"/>
      <point x="244" y="642"/>
      <point x="209" y="647"/>
      <point x="234" y="672" type="curve" smooth="yes"/>
      <point x="259" y="697"/>
      <point x="307" y="714"/>
    </contour>
  </outline>
</glyph>
<glyph name="l9" format="1">
  <advance width="800"/>
  <outline>
    <contour>
      <point x="390" y="750" type="line"/>
      <point x="363" y="683"/>
      <point x="297" y="592"/>
      <point x="253" y="592" type="curve" smooth="yes"/>
      <point x="226" y="592"/>
      <point x="220" y="629"/>
      <point x="175" y="629" type="curve" smooth="yes"/>
      <point x="152" y="629"/>
      <point x="134" y="615"/>
      <point x="134" y="588" type="curve" smooth="yes"/>
      <point x="134" y="550"/>
      <point x="165" y="530"/>
      <point x="205" y="530" type="curve" smooth="yes"/>
      <point x="252" y="530"/>
      <point x="321" y="566"/>
      <point x="355" y="624" type="curve"/>
      <point x="355" y="99" type="line" smooth="yes"/>
      <point x="355" y="31"/>
      <point x="404" y="-12"/>
      <point x="473" y="-12" type="curve" smooth="yes"/>
      <point x="529" y="-12"/>
      <point x="600" y="17"/>
      <point x="668" y="85" type="curve"/>
      <point x="653" y="115" type="line"/>
      <point x="595" y="57"/>
      <point x="547" y="37"/>
      <point x="512" y="37" type="curve" smooth="yes"/>
      <point x="467" y="37"/>
      <point x="443" y="69"/>
      <point x="443" y="99" type="curve" smooth="yes"/>
      <point x="443" y="750" type="line"/>
    </contour>
  </outline>
</glyph>
<glyph name="less3" format="1">
  <advance width="800"/>
  <outline>
    <contour>
      <point x="254" y="308" type="line"/>
      <point x="767" y="598" type="line" smooth="yes"/>
      <point x="767" y="695" type="line" smooth="yes"/>
      <point x="749" y="695" type="line"/>
      <point x="743" y="656"/>
      <point x="730" y="634"/>
      <point x="692" y="615" type="curve" smooth="yes"/>
      <point x="166" y="352" type="line" smooth="yes"/>
      <point x="166" y="264" type="line" smooth="yes"/>
      <point x="692" y="1" type="line" smooth="yes"/>
      <point x="730" y="-18"/>
      <point x="743" y="-40"/>
      <point x="749" y="-79" type="curve"/>
      <point x="767" y="-79" type="line" smooth="yes"/>
      <point x="767" y="28" type="line" smooth="yes"/>
      <point x="692" y="69" type="line" smooth="yes"/>
    </contour>
  </outline>
</glyph>
<glyph name="less4" format="1">
  <advance width="800"/>
  <outline>
    <contour>
      <point x="254" y="308" type="line" smooth="yes"/>
      <point x="692" y="567" type="line" smooth="yes"/>
      <point x="730" y="589"/>
      <point x="723" y="630"/>
      <point x="692" y="615" type="curve" smooth="yes"/>
      <point x="166" y="352" type="line" smooth="yes"/>
      <point x="166" y="264" type="line" smooth="yes"/>
      <point x="692" y="1" type="line" smooth="yes"/>
      <point x="723" y="-14"/>
      <point x="730" y="27"/>
      <point x="692" y="49" type="curve" smooth="yes"/>
    </contour>
  </outline>
</glyph>
<glyph name="less5" format="1">
  <advance width="800"/>
  <outline>
    <contour>
      <point x="690" y="571" type="line" smooth="yes"/>
      <point x="690" y="586"/>
      <point x="675" y="596"/>
      <point x="661" y="589" type="curve" smooth="yes"/>
      <point x="178" y="356" type="line" smooth="yes"/>
      <point x="163" y="349"/>
      <point x="143" y="333"/>
      <point x="143" y="316" type="curve" smooth="yes"/>
      <point x="143" y="300" type="line" smooth="yes"/>
      <point x="143" y="284"/>
      <point x="162" y="268"/>
      <point x="177" y="260" type="curve" smooth="yes"/>
      <point x="661" y="12" type="line" smooth="yes"/>
      <point x="674" y="5"/>
      <point x="690" y="15"/>
      <point x="690" y="30" type="curve" smooth="yes"/>
      <point x="690" y="30" type="line" smooth="yes"/>
      <point x="690" y="59"/>
      <point x="674" y="87"/>
      <point x="647" y="101" type="curve" smooth="yes"/>
      <point x="233" y="322" type="line"/>
      <point x="670" y="539" type="line" smooth="yes"/>
      <point x="682" y="545"/>
      <point x="690" y="558"/>
      <point x="690" y="571" type="curve" smooth="yes"/>
    </contour>
  </outline>
</glyph>
<glyph name="less6" format="1">
  <advance width="800"/>
  <outline>
    <contour>
      <point x="692" y="49" type="line" smooth="yes"/>
      <point x="254" y="308" type="line"/>
      <point x="692" y="567" type="line" smooth="yes"/>
      <point x="692" y="615" type="line" smooth="yes"/>
      <point x="166" y="352" type="line" smooth="yes"/>
      <point x="166" y="264" type="line" smooth="yes"/>
      <point x="692" y="1" type="line" smooth="yes"/>
    </contour>
  </outline>
</glyph>
<glyph name="o1" format="1">
  <advance width="800"/>
  <outline>
    <contour>
      <point x="193" y="262" type="curve" smooth="yes"/>
      <point x="193" y="372"/>
      <point x="257" y="478"/>
      <point x="389" y="478" type="curve" smooth="yes"/>
      <point x="532" y="478"/>
      <point x="607" y="355"/>
      <point x="607" y="237" type="curve" smooth="yes"/>
      <point x="607" y="127"/>
      <point x="542" y="22"/>
      <point x="410" y="22" type="curve" smooth="yes"/>
      <point x="267" y="22"/>
      <point x="193" y="144"/>
    </contour>
    <contour>
      <point x="708" y="266" type="curve" smooth="yes"/>
      <point x="708" y="391"/>
      <point x="612" y="512"/>
      <point x="418" y="512" type="curve" smooth="yes"/>
      <point x="203" y="512"/>
      <point x="92" y="370"/>
      <point x="92" y="234" type="curve" smooth="yes"/>
      <point x="92" y="109"/>
      <point x="187" y="-12"/>
      <point x="381" y="-12" type="curve" smooth="yes"/>
      <point x="596" y="-12"/>
      <point x="708" y="130"/>
    </contour>
  </outline>
</glyph>
<glyph name="o2" format="1">
  <advance width="800"/>
  <outline>
    <contour>
      <point x="193" y="264" type="curve" smooth="yes"/>
      <point x="193" y="372"/>
      <point x="274" y="479"/>
      <point x="373" y="479" type="curve" smooth="yes"/>
      <point x="515" y="479"/>
      <point x="606" y="381"/>
      <point x="606" y="235" type="curve" smooth="yes"/>
      <point x="606" y="127"/>
      <point x="525" y="20"/>
      <point x="426" y="20" type="curve" smooth="yes"/>
      <point x="284" y="20"/>
      <point x="193" y="118"/>
    </contour>
    <contour>
      <point x="93" y="233" type="curve" smooth="yes"/>
      <point x="93" y="100"/>
      <point x="230" y="-12"/>
      <point x="363" y="-12" type="curve" smooth="yes"/>
      <point x="546" y="-12"/>
      <point x="706" y="86"/>
      <point x="706" y="267" type="curve" smooth="yes"/>
      <point x="706" y="400"/>
      <point x="569" y="512"/>
      <point x="436" y="512" type="curve" smooth="yes"/>
      <point x="253" y="512"/>
      <point x="93" y="414"/>
    </contour>
  </outline>
</glyph>
<glyph name="one2" format="1">
  <advance width="800"/>
  <outline>
    <contour>
      <point x="675" y="78" type="line"/>
      <point x="631" y="73"/>
      <point x="518" y="48"/>
      <point x="445" y="48" type="curve" smooth="yes"/>
      <point x="357" y="48" type="line" smooth="yes"/>
      <point x="284" y="48"/>
      <point x="171" y="73"/>
      <point x="127" y="78" type="curve"/>
      <point x="127" y="0" type="line" smooth="yes"/>
      <point x="675" y="0" type="line" smooth="yes"/>
    </contour>
    <contour>
      <point x="403" y="672" type="line"/>
      <point x="376" y="605"/>
      <point x="302" y="512"/>
      <point x="252" y="512" type="curve" smooth="yes"/>
      <point x="222" y="512"/>
      <point x="210" y="554"/>
      <point x="160" y="554" type="curve" smooth="yes"/>
      <point x="134" y="554"/>
      <point x="113" y="538"/>
      <point x="113" y="508" type="curve" smooth="yes"/>
      <point x="113" y="465"/>
      <point x="148" y="442"/>
      <point x="194" y="442" type="curve" smooth="yes"/>
      <point x="247" y="442"/>
      <point x="314" y="474"/>
      <point x="356" y="546" type="curve"/>
      <point x="357" y="0" type="line"/>
      <point x="445" y="0" type="line"/>
      <point x="445" y="672" type="line"/>
    </contour>
  </outline>
</glyph>
<glyph name="s1" format="1">
  <advance width="800"/>
  <outline>
    <contour>
      <point x="149" y="356" type="curve" smooth="yes"/>
      <point x="149" y="268"/>
      <point x="278" y="247"/>
      <point x="398" y="217" type="curve" smooth="yes"/>
      <point x="492" y="192"/>
      <point x="574" y="172"/>
      <point x="574" y="108" type="curve" smooth="yes"/>
      <point x="574" y="50"/>
      <point x="508" y="16"/>
      <point x="428" y="16" type="curve" smooth="yes"/>
      <point x="330" y="16"/>
      <point x="220" y="48"/>
      <point x="165" y="163" type="curve"/>
      <point x="133" y="163" type="line" smooth="yes"/>
      <point x="133" y="0" type="line" smooth="yes"/>
      <point x="162" y="0" type="line"/>
      <point x="190" y="51" type="line"/>
      <point x="280" y="6"/>
      <point x="332" y="-12"/>
      <point x="402" y="-12" type="curve" smooth="yes"/>
      <point x="537" y="-12"/>
      <point x="654" y="45"/>
      <point x="654" y="141" type="curve" smooth="yes"/>
      <point x="654" y="228"/>
      <point x="542" y="251"/>
      <point x="429" y="277" type="curve" smooth="yes"/>
      <point x="325" y="300"/>
      <point x="231" y="319"/>
      <point x="231" y="382" type="curve" smooth="yes"/>
      <point x="231" y="457"/>
      <point x="304" y="481"/>
      <point x="378" y="481" type="curve" smooth="yes"/>
      <point x="471" y="481"/>
      <point x="573" y="435"/>
      <point x="611" y="327" type="curve"/>
      <point x="636" y="327" type="line" smooth="yes"/>
      <point x="636" y="500" type="line" smooth="yes"/>
      <point x="614" y="500" type="line"/>
      <point x="576" y="453" type="line"/>
      <point x="510" y="496"/>
      <point x="463" y="511"/>
      <point x="390" y="511" type="curve" smooth="yes"/>
      <point x="269" y="511"/>
      <point x="149" y="468"/>
    </contour>
  </outline>
</glyph>
<glyph name="s4" format="1">
  <advance width="800"/>
  <outline>
    <contour>
      <point x="388" y="476" type="curve" smooth="yes"/>
      <point x="493" y="476"/>
      <point x="577" y="441"/>
      <point x="612" y="353" type="curve"/>
      <point x="641" y="353" type="line" smooth="yes"/>
      <point x="641" y="513" type="line" smooth="yes"/>
      <point x="615" y="513" type="line" smooth="yes"/>
      <point x="589" y="470" type="line"/>
      <point x="561" y="490"/>
      <point x="501" y="512"/>
      <point x="438" y="512" type="curve" smooth="yes"/>
      <point x="254" y="512"/>
      <point x="148" y="448"/>
      <point x="148" y="362" type="curve" smooth="yes"/>
      <point x="148" y="287"/>
      <point x="270" y="253"/>
      <point x="341" y="239" type="curve" smooth="yes"/>
      <point x="441" y="220"/>
      <point x="588" y="211"/>
      <point x="588" y="127" type="curve" smooth="yes"/>
      <point x="588" y="59"/>
      <point x="496" y="24"/>
      <point x="410" y="24" type="curve" smooth="yes"/>
      <point x="312" y="24"/>
      <point x="220" y="60"/>
      <point x="173" y="158" type="curve"/>
      <point x="144" y="158" type="line" smooth="yes"/>
      <point x="144" y="-12" type="line" smooth="yes"/>
      <point x="170" y="-12" type="line" smooth="yes"/>
      <point x="196" y="31" type="line"/>
      <point x="237" y="6"/>
      <point x="308" y="-12"/>
      <point x="379" y="-12" type="curve" smooth="yes"/>
      <point x="531" y="-12"/>
      <point x="679" y="41"/>
      <point x="679" y="143" type="curve" smooth="yes"/>
      <point x="679" y="256"/>
      <point x="477" y="279"/>
      <point x="381" y="298" type="curve" smooth="yes"/>
      <point x="322" y="310"/>
      <point x="240" y="334"/>
      <point x="240" y="396" type="curve" smooth="yes"/>
      <point x="240" y="447"/>
      <point x="316" y="476"/>
    </contour>
  </outline>
</glyph>
<glyph name="w2" format="1">
  <advance width="800"/>
  <outline>
    <contour>
      <point x="529" y="-12" type="line" smooth="yes"/>
      <point x="572" y="-12" type="line" smooth="yes"/>
      <point x="716" y="425" type="line" smooth="yes"/>
      <point x="729" y="466"/>
      <point x="761" y="476"/>
      <point x="800" y="482" type="curve"/>
      <point x="800" y="500" type="line" smooth="yes"/>
      <point x="606" y="500" type="line" smooth="yes"/>
      <point x="606" y="482" type="line"/>
      <point x="651" y="476"/>
      <point x="685" y="466"/>
      <point x="672" y="425" type="curve" smooth="yes"/>
    </contour>
    <contour>
      <point x="229" y="-12" type="line" smooth="yes"/>
      <point x="298" y="-12" type="line" smooth="yes"/>
      <point x="298" y="21" type="line" smooth="yes"/>
      <point x="167" y="425" type="line" smooth="yes"/>
      <point x="156" y="458"/>
      <point x="190" y="475"/>
      <point x="232" y="483" type="curve"/>
      <point x="232" y="500" type="line" smooth="yes"/>
      <point x="0" y="500" type="line" smooth="yes"/>
      <point x="0" y="482" type="line"/>
      <point x="50" y="472"/>
      <point x="75" y="455"/>
      <point x="85" y="425" type="curve" smooth="yes"/>
    </contour>
    <contour>
      <point x="439" y="425" type="line" smooth="yes"/>
      <point x="409" y="425" type="line" smooth="yes"/>
      <point x="393" y="306" type="line" smooth="yes"/>
      <point x="501" y="-12" type="line" smooth="yes"/>
      <point x="570" y="-12" type="line" smooth="yes"/>
      <point x="570" y="21" type="line" smooth="yes"/>
    </contour>
    <contour>
      <point x="428" y="425" type="line"/>
      <point x="400" y="425" type="line" smooth="yes"/>
      <point x="257" y="-12" type="line" smooth="yes"/>
      <point x="300" y="-12" type="line" smooth="yes"/>
      <point x="428" y="378" type="line"/>
    </contour>
  </outline>
</glyph>
<glyph name="zero1" format="1">
  <advance width="800"/>
  <outline>
    <contour>
      <point x="416" y="20" type="curve" smooth="yes"/>
      <point x="274" y="20"/>
      <point x="199" y="192"/>
      <point x="199" y="355" type="curve" smooth="yes"/>
      <point x="199" y="501"/>
      <point x="260" y="641"/>
      <point x="384" y="641" type="curve" smooth="yes"/>
      <point x="526" y="641"/>
      <point x="601" y="469"/>
      <point x="601" y="306" type="curve" smooth="yes"/>
      <point x="601" y="160"/>
      <point x="540" y="20"/>
    </contour>
    <contour>
      <point x="416" y="672" type="curve" smooth="yes"/>
      <point x="206" y="672"/>
      <point x="99" y="490"/>
      <point x="99" y="313" type="curve" smooth="yes"/>
      <point x="99" y="147"/>
      <point x="213" y="-12"/>
      <point x="405" y="-12" type="curve" smooth="yes"/>
      <point x="615" y="-12"/>
      <point x="702" y="170"/>
      <point x="702" y="347" type="curve" smooth="yes"/>
      <point x="702" y="513"/>
      <point x="608" y="672"/>
    </contour>
    <contour>
      <point x="198" y="95" type="line" smooth="yes"/>
      <point x="249" y="95" type="line" smooth="yes"/>
      <point x="602" y="565" type="line" smooth="yes"/>
      <point x="551" y="565" type="line" smooth="yes"/>
    </contour>
  </outline>
</glyph>
